<svg width="66" height="66" viewBox="0 0 66 66" fill="none" xmlns="http://www.w3.org/2000/svg">
<path d="M33 0C51.2298 0 66 14.7792 66 33C66 51.2298 51.2208 66 33 66C14.7792 66 0 51.2208 0 33C0 14.7702 14.7792 0 33 0Z" fill="#F0B90B"/>
<path d="M24.459 29.4507L29.4601 24.4675L33.0093 20.9183L41.5147 29.4507L46.462 24.4675L33.0093 10.9968L19.5117 24.4675L24.459 29.4507Z" fill="white"/>
<path d="M33.0183 28.0186L28.0498 32.9871L33.0183 37.9556L37.9868 32.9871L33.0183 28.0186Z" fill="white"/>
<path d="M41.5147 36.5487L33.0093 45.0542L30.0158 42.0697L29.4691 41.5229L24.459 36.5487L19.5117 41.505L33.0093 54.9757L46.462 41.505L41.5147 36.5487Z" fill="white"/>
<path d="M15.969 28.0303L11.0005 32.9988L15.969 37.9673L20.9375 32.9988L15.969 28.0303Z" fill="white"/>
<path d="M50.0291 28.0337L45.0605 33.0022L50.0291 37.9708L54.9976 33.0022L50.0291 28.0337Z" fill="white"/>
</svg>
