<svg width="66" height="66" viewBox="0 0 66 66" fill="none" xmlns="http://www.w3.org/2000/svg">
<path d="M65.0113 40.9851C60.6015 58.658 42.6933 69.4213 25.0181 65.012C7.34295 60.6027 -3.42169 42.6968 0.988139 25.0239C5.39797 7.34199 23.3062 -3.42129 40.9813 0.987982C58.6655 5.39725 69.4212 23.3032 65.0113 40.9851Z" fill="#F7931A"/>
<path d="M46.8564 26.2148C46.9131 21.7754 43.2828 19.8903 38.5408 18.9433L39.2045 12.8475L35.4945 12.4385L34.8446 18.3695C33.8718 18.2667 32.8735 18.1763 31.8753 18.0859L32.5292 12.1181L28.8192 11.7091L28.1454 17.7971C27.3397 17.7258 26.5518 17.6521 25.7804 17.567L25.778 17.5492L20.6632 16.9875L20.2345 20.953C20.2345 20.953 22.9822 21.2034 22.9249 21.2474C24.431 21.4135 24.8189 22.3375 24.8783 23.1072L23.0502 39.7985C22.9329 40.2667 22.5693 40.9854 21.5231 40.8744C21.5658 40.9229 18.8238 40.5812 18.8238 40.5812L17.5977 44.9354L22.4275 45.4636C23.328 45.5672 24.2108 45.6733 25.0746 45.7729L24.4016 51.9332L28.1116 52.3423L28.7842 46.2453C29.7974 46.3789 30.7815 46.4983 31.7454 46.6024L31.087 52.6703L34.797 53.0793L35.4712 46.9279C41.7474 47.2503 46.2852 46.163 47.4691 40.3674C48.4261 35.697 46.4341 33.354 42.9908 32.1128C45.2619 31.2523 46.8192 29.4668 46.8564 26.2148ZM40.2225 38.8293C39.7185 43.4381 31.8865 42.052 29.3697 41.7701L30.268 33.6075C32.7836 33.8805 40.7456 34.028 40.2225 38.8293ZM39.7606 27.1163C39.2987 31.3034 32.7762 30.101 30.6825 29.8701L31.4932 22.4611C33.587 22.6919 40.2428 22.7456 39.7606 27.1163Z" fill="white"/>
</svg>
