<svg width="66" height="66" viewBox="0 0 66 66" fill="none" xmlns="http://www.w3.org/2000/svg">
<path d="M33 66C51.2254 66 66 51.2254 66 33C66 14.7746 51.2254 0 33 0C14.7746 0 0 14.7746 0 33C0 51.2254 14.7746 66 33 66Z" fill="#3CC8C8"/>
<path d="M32.3727 9.38414C33.493 8.80158 34.8642 10.1549 34.2637 11.2752C33.9142 12.1894 32.6057 12.4314 31.9335 11.7323C31.2254 11.0691 31.4585 9.7516 32.3727 9.38414ZM20.3181 10.6837C20.9992 10.4059 21.8596 11.0243 21.7879 11.7682C21.8596 12.5748 20.8737 13.1663 20.1836 12.7809C19.2605 12.4314 19.368 10.9347 20.3181 10.6837ZM45.0008 12.8078C43.9343 12.6823 43.773 11.0064 44.7947 10.6658C45.5924 10.2804 46.3183 11.0064 46.4348 11.7592C46.2646 12.4045 45.7268 12.996 45.0008 12.8078ZM23.0606 15.8103C24.1988 15.0933 25.8211 16.1598 25.6508 17.4863C25.588 18.8217 23.8224 19.5925 22.8186 18.6962C21.8507 17.9882 21.9941 16.357 23.0606 15.8103ZM40.43 16.5811C40.9408 15.2725 42.9932 15.2367 43.5758 16.5093C44.1494 17.5042 43.4414 18.7321 42.4286 19.0637C41.0753 19.3146 39.7936 17.8537 40.43 16.5811ZM30.9207 18.983C30.9118 17.8627 31.9335 17.0202 33 16.9395C33.7081 17.0829 34.4788 17.3877 34.7836 18.0957C35.3482 19.0816 34.8463 20.4439 33.8246 20.892C33.3585 21.1519 32.8028 21.0533 32.292 21.0265C31.5122 20.659 30.858 19.9061 30.9207 18.983ZM12.9957 20.6231C14.0353 19.9868 15.4335 21.1519 15.0481 22.2812C14.833 23.2581 13.5155 23.6525 12.7716 23.0341C11.965 22.4425 12.0905 21.0444 12.9957 20.6231ZM51.4807 20.6231C52.3591 19.942 53.82 20.7217 53.7124 21.8331C53.7752 22.8459 52.5114 23.6166 51.6331 23.0878C50.6741 22.6576 50.5755 21.1788 51.4807 20.6231ZM35.9577 22.6397C37.4096 22.1199 39.1394 22.7383 39.9729 24.0379C41.0663 25.6242 40.4837 28.0441 38.7898 28.9493C37.0332 30.0248 34.4609 29.1106 33.8067 27.1479C33.0717 25.4002 34.1472 23.1954 35.9577 22.6397ZM27.4164 22.819C29.0296 22.0572 31.1986 22.6935 31.9783 24.3426C32.8925 25.9469 32.1844 28.1875 30.5443 29.0121C28.9042 29.9442 26.5829 29.2361 25.7942 27.5153C24.9069 25.8483 25.6956 23.5808 27.4164 22.819ZM18.8661 25.7407C18.9916 24.7011 19.9685 24.0289 20.9544 23.9572C22.0209 24.0827 22.8724 24.9162 22.9889 25.9917C22.9172 27.0582 22.0926 28.1068 20.9634 28.0979C19.7176 28.2054 18.6331 26.9597 18.8661 25.7407ZM44.1225 24.1813C45.4042 23.4374 47.1787 24.5218 47.116 25.9917C47.2056 27.5512 45.2428 28.6446 43.9701 27.7304C42.6527 26.9686 42.7513 24.8266 44.1225 24.1813ZM23.9479 29.6663C25.4446 29.254 27.1565 29.9621 27.8824 31.3334C28.6891 32.7136 28.3574 34.6405 27.1116 35.6533C25.5163 37.1411 22.5587 36.5406 21.7072 34.515C20.7303 32.6508 21.9134 30.1503 23.9479 29.6663ZM40.1432 29.6574C41.5951 29.2451 43.3069 29.8008 44.0867 31.1272C45.1174 32.6419 44.6244 34.9004 43.0918 35.8774C41.4786 37.0066 38.987 36.4151 38.0997 34.6405C37.0152 32.8032 38.0997 30.213 40.1432 29.6574ZM14.3311 31.3871C15.6217 30.9032 17.0557 32.3192 16.5269 33.6009C16.2043 34.766 14.5641 35.1962 13.7127 34.3358C12.7268 33.5292 13.0943 31.7367 14.3311 31.3871ZM49.3297 33.2424C49.2939 32.1758 50.0736 31.2258 51.176 31.1631C52.0633 31.3065 52.9237 32.0145 52.852 32.9825C52.9327 34.2551 51.4001 35.1155 50.3156 34.524C49.8048 34.2641 49.5448 33.7443 49.3297 33.2424ZM7.97667 32.0145C8.7564 31.6739 9.7154 32.3461 9.53615 33.2155C9.49134 34.1924 8.04837 34.5688 7.51958 33.7532C7.06249 33.1796 7.34033 32.3013 7.97667 32.0145ZM56.9658 31.9876C57.5125 31.6022 58.3908 31.8801 58.6059 32.5164C58.9734 33.2155 58.3012 34.1745 57.5125 34.049C56.4101 34.1565 56.0516 32.4806 56.9658 31.9876ZM28.1603 36.684C30.2037 36.1552 32.3995 37.8581 32.4175 39.9643C32.5519 42.0884 30.383 43.9795 28.2947 43.4865C26.6815 43.2266 25.4088 41.6671 25.4625 40.036C25.4536 38.4675 26.6366 37.0156 28.1603 36.684ZM36.2624 36.675C38.3417 36.0925 40.6003 37.8312 40.5644 39.9822C40.672 42.0705 38.5747 43.8898 36.5313 43.4776C34.6043 43.2266 33.1793 41.1115 33.717 39.2383C33.9859 37.9925 35.0256 36.9797 36.2624 36.675ZM20.6497 37.9746C22.0837 37.7326 23.4281 39.3279 22.8455 40.6902C22.4243 42.1422 20.3091 42.5365 19.368 41.3535C18.2836 40.2152 19.0992 38.1269 20.6497 37.9746ZM44.3914 38.0373C45.673 37.4996 47.2415 38.6109 47.1429 40.0001C47.1967 41.5327 45.2518 42.5813 44.006 41.694C42.5899 40.8874 42.8409 38.5303 44.3914 38.0373ZM51.0237 44.6965C50.5218 43.7644 51.4359 42.5275 52.4666 42.6978C52.9865 42.6889 53.3449 43.0922 53.6766 43.4417C53.7483 43.9974 53.8558 44.6517 53.3987 45.0819C52.7803 45.8616 51.3642 45.6375 51.0237 44.6965ZM12.9867 42.9488C13.9547 42.3035 15.3528 43.2625 15.1377 44.4007C15.0212 45.4045 13.7575 45.9781 12.924 45.4045C12.0367 44.8937 12.0636 43.4238 12.9867 42.9488ZM32.1486 45.055C33.4213 44.4903 35.0345 45.6017 34.918 46.9998C35.0076 48.5414 33.009 49.6169 31.7722 48.6848C30.383 47.8871 30.616 45.539 32.1486 45.055ZM23.2757 47.1253C24.3602 46.5607 25.8121 47.5376 25.7135 48.7475C25.7493 49.7424 24.7724 50.5849 23.7955 50.4415C22.9799 50.4235 22.4511 49.6976 22.1912 49.0074C22.2002 48.2456 22.5139 47.4032 23.2757 47.1253ZM41.2455 47.1343C42.3569 46.4442 43.9343 47.43 43.8357 48.7296C43.8626 50.083 42.0791 50.9523 41.0394 50.0561C40.0356 49.3659 40.1611 47.69 41.2455 47.1343ZM44.3735 54.8689C43.8805 54.125 44.4631 53.2198 45.2608 53.0495C45.9061 53.184 46.5872 53.668 46.4528 54.4118C46.3631 55.4246 44.8754 55.7383 44.3735 54.8689ZM19.5652 54.2147C19.7624 53.6231 20.2374 53.0316 20.9365 53.184C21.9582 53.2557 22.254 54.7883 21.3667 55.2633C20.5601 55.81 19.6369 55.0661 19.5652 54.2147ZM31.5302 54.8958C31.7274 54.0175 32.8566 53.5873 33.6095 54.0623C34.1024 54.2774 34.2458 54.8241 34.3713 55.2991C34.2996 55.5411 34.2458 55.7921 34.1831 56.0341C33.8783 56.4015 33.484 56.76 32.9731 56.7511C32.0321 56.8496 31.1717 55.7831 31.5302 54.8958Z" fill="white"/>
</svg>
