<svg width="66" height="66" viewBox="0 0 66 66" fill="none" xmlns="http://www.w3.org/2000/svg">
<path d="M33 66C51.2254 66 66 51.2254 66 33C66 14.7746 51.2254 0 33 0C14.7746 0 0 14.7746 0 33C0 51.2254 14.7746 66 33 66Z" fill="#627EEA"/>
<path d="M32.6787 12.7507V27.9907L45.5591 33.7477L32.6787 12.7507Z" fill="white" fill-opacity="0.602"/>
<path d="M32.6787 12.7507L19.7908 33.7476L32.6787 27.9907V12.7507Z" fill="white"/>
<path d="M32.6787 43.6263V53.9829L45.5666 36.1444L32.6787 43.6263Z" fill="white" fill-opacity="0.602"/>
<path d="M32.6787 53.9829V43.6263L19.7909 36.1519L32.6787 53.9829Z" fill="white"/>
<path d="M32.6787 41.2296L45.5591 33.7477L32.6787 27.9982V41.2296Z" fill="white" fill-opacity="0.2"/>
<path d="M19.7983 33.7552L32.6862 41.2371V27.9982L19.7983 33.7552Z" fill="white" fill-opacity="0.602"/>
</svg>
