<svg width="65" height="60" viewBox="0 0 65 60" fill="none" xmlns="http://www.w3.org/2000/svg">
<g id="icon">
<path id="Vector" fill-rule="evenodd" clip-rule="evenodd" d="M48.1451 24.251V6.65328C48.1451 4.60102 45.6228 2.93804 40.6505 1.70801C36.1993 0.606408 30.3112 0 24.0719 0C17.8325 0 11.9458 0.606408 7.49459 1.70668C2.52232 2.93671 0 4.60102 0 6.65196V52.4119C0 54.4682 2.51705 56.1325 7.48274 57.3612C11.9248 58.4601 17.8167 59.0652 24.0732 59.0652C29.3731 59.0652 34.5427 58.6151 38.6861 57.7968C41.2215 59.2003 44.132 60 47.2254 60C57.0265 60 65 51.9763 65 42.1136C64.9987 32.562 57.5199 24.7343 48.1451 24.251ZM7.93537 3.50737C12.2471 2.44152 17.9773 1.85365 24.0732 1.85365C30.1691 1.85365 35.8993 2.4402 40.211 3.50737C45.0201 4.69635 46.3043 6.04422 46.3043 6.65328V6.6546C46.303 7.26366 45.0188 8.6102 40.211 9.79919C35.8993 10.865 30.1691 11.4529 24.0732 11.4529C17.9773 11.4529 12.2471 10.8664 7.93537 9.79919C3.12494 8.60888 1.84207 7.26101 1.84207 6.65196C1.84207 6.0429 3.12494 4.69635 7.93537 3.50737ZM1.84207 9.40595C3.09467 10.2441 4.98016 10.9763 7.49459 11.5986C11.9458 12.6988 17.8325 13.3052 24.0719 13.3052C30.3112 13.3052 36.198 12.6988 40.6492 11.5986C43.1636 10.9763 45.0504 10.2441 46.3017 9.40595V18.0929C46.3017 18.7033 45.0215 20.0552 40.2216 21.2415C35.919 22.306 30.1823 22.8913 24.0706 22.8913C17.9588 22.8913 12.2221 22.3047 7.91958 21.2415C3.12231 20.0538 1.84207 18.7033 1.84207 18.0929V9.40595ZM1.84207 20.8522C3.09204 21.689 4.9749 22.4212 7.48274 23.0422C11.9248 24.1411 17.8167 24.7462 24.0732 24.7462C30.3297 24.7462 36.2216 24.1411 40.6637 23.0422C43.1715 22.4225 45.0544 21.6904 46.3043 20.8522V24.251C39.7808 24.5873 34.1756 28.4813 31.3691 34.037C29.0244 34.2316 26.5745 34.3309 24.0745 34.3309C17.9628 34.3309 12.2261 33.7444 7.92352 32.6812C3.12231 31.4948 1.84207 30.143 1.84207 29.5326V20.8522ZM1.84207 32.2919C3.09204 33.1287 4.9749 33.8609 7.48274 34.4819C11.9248 35.5808 17.8167 36.1859 24.0732 36.1859C26.2758 36.1859 28.4415 36.1091 30.5336 35.9608C29.8323 37.8807 29.4494 39.9528 29.4494 42.1149C29.4494 43.3052 29.5665 44.4677 29.7876 45.5945C27.9284 45.7123 26.0113 45.7732 24.0719 45.7732C17.9602 45.7732 12.2234 45.1867 7.92089 44.1235C3.1223 42.9345 1.84207 41.584 1.84207 40.9723V32.2919ZM24.0719 57.2116C17.9602 57.2116 12.2234 56.625 7.92089 55.5618C3.1223 54.3742 1.84207 53.0237 1.84207 52.4119V43.7316C3.09204 44.5684 4.9749 45.3006 7.48274 45.9215C11.9248 47.0205 17.8167 47.6256 24.0732 47.6256C26.1705 47.6256 28.2442 47.5567 30.2481 47.4217C31.3533 50.9952 33.5454 54.0895 36.4322 56.3165C32.7691 56.8965 28.4705 57.2116 24.0719 57.2116ZM47.224 58.1463C38.4387 58.1463 31.2915 50.9542 31.2915 42.1136C31.2915 33.273 38.4387 26.0809 47.224 26.0809C56.0094 26.0809 63.1566 33.273 63.1566 42.1136C63.1566 50.9542 56.0094 58.1463 47.224 58.1463ZM52.9568 37.7257H51.7713V36.2455C51.7713 33.7219 49.7319 31.6696 47.224 31.6696C44.7162 31.6696 42.6768 33.7219 42.6768 36.2455V37.7257H41.4913C40.3834 37.7257 39.4821 38.6327 39.4821 39.7475V47.9261C39.4821 49.041 40.3834 49.9479 41.4913 49.9479H52.9568C54.0647 49.9479 54.966 49.041 54.966 47.9261V39.7475C54.966 38.6327 54.0647 37.7257 52.9568 37.7257ZM44.5188 36.2455C44.5188 34.744 45.732 33.5233 47.224 33.5233C48.7161 33.5233 49.9293 34.744 49.9293 36.2455V37.7257H44.5188V36.2455ZM53.1239 47.9261C53.1239 48.0162 53.0463 48.0943 52.9568 48.0943H41.4913C41.4018 48.0943 41.3242 48.0162 41.3242 47.9261V39.7475C41.3242 39.6562 41.4005 39.5794 41.4913 39.5794H52.9568C53.0476 39.5794 53.1239 39.6562 53.1239 39.7475V47.9261ZM48.449 41.7746C48.7622 42.0898 48.9569 42.5267 48.9569 43.0086C48.9569 43.4906 48.7622 43.9262 48.449 44.2427L48.4385 44.2532V45.1893C48.4385 45.8646 47.8938 46.4127 47.2227 46.4127C46.5517 46.4127 46.007 45.8646 46.007 45.1893V44.2532L45.9964 44.2427C45.957 44.2029 45.9201 44.1592 45.8859 44.1155C45.6372 43.8123 45.4886 43.427 45.4886 43.01C45.4886 42.5333 45.682 42.099 45.9964 41.7813L46.0043 41.7733C46.3201 41.4595 46.7504 41.2649 47.2227 41.2649C47.6964 41.2649 48.1293 41.4608 48.4464 41.7786L48.449 41.7746Z" fill="#805DFF"/>
</g>
</svg>
