<svg width="58" height="62" viewBox="0 0 58 62" fill="none" xmlns="http://www.w3.org/2000/svg">
<g id="icon">
<path id="Vector" d="M26.5054 61V31" stroke="#805DFF" stroke-width="1.5" stroke-miterlimit="10" stroke-linecap="round" stroke-linejoin="round"/>
<path id="Vector_2" d="M31.3726 31V61" stroke="#805DFF" stroke-width="1.5" stroke-miterlimit="10" stroke-linecap="round" stroke-linejoin="round"/>
<path id="Vector_3" d="M11.9038 52.3079V31H45.9746V36.9586" stroke="#805DFF" stroke-width="1.5" stroke-miterlimit="10" stroke-linecap="round" stroke-linejoin="round"/>
<path id="Vector_4" d="M45.9741 41.2077V61H11.9033V56.5505" stroke="#805DFF" stroke-width="1.5" stroke-miterlimit="10" stroke-linecap="round" stroke-linejoin="round"/>
<path id="Vector_5" d="M35.3882 26.1218L38.0651 23.4389" stroke="#805DFF" stroke-width="1.5" stroke-miterlimit="10" stroke-linecap="round" stroke-linejoin="round"/>
<path id="Vector_6" d="M40.7422 26.1218L45.2792 21.5747" stroke="#805DFF" stroke-width="1.5" stroke-miterlimit="10" stroke-linecap="round" stroke-linejoin="round"/>
<path id="Vector_7" d="M22.4899 26.1218L19.813 23.4389" stroke="#805DFF" stroke-width="1.5" stroke-miterlimit="10" stroke-linecap="round" stroke-linejoin="round"/>
<path id="Vector_8" d="M17.1361 26.1218L12.5991 21.5747" stroke="#805DFF" stroke-width="1.5" stroke-miterlimit="10" stroke-linecap="round" stroke-linejoin="round"/>
<path id="Vector_9" d="M46.9111 10.8301V9.6104" stroke="#805DFF" stroke-width="1.5" stroke-miterlimit="10" stroke-linecap="round" stroke-linejoin="round"/>
<path id="Vector_10" d="M48.4556 12.3784H49.6724" stroke="#805DFF" stroke-width="1.5" stroke-miterlimit="10" stroke-linecap="round" stroke-linejoin="round"/>
<path id="Vector_11" d="M46.9111 13.9267V15.1462" stroke="#805DFF" stroke-width="1.5" stroke-miterlimit="10" stroke-linecap="round" stroke-linejoin="round"/>
<path id="Vector_12" d="M45.3663 12.3784H44.1494" stroke="#805DFF" stroke-width="1.5" stroke-miterlimit="10" stroke-linecap="round" stroke-linejoin="round"/>
<path id="Vector_13" d="M13.1572 2.21973V1.00017" stroke="#805DFF" stroke-width="1.5" stroke-miterlimit="10" stroke-linecap="round" stroke-linejoin="round"/>
<path id="Vector_14" d="M11.6124 3.76758H10.3955" stroke="#805DFF" stroke-width="1.5" stroke-miterlimit="10" stroke-linecap="round" stroke-linejoin="round"/>
<path id="Vector_15" d="M13.1572 5.31609V6.53564" stroke="#805DFF" stroke-width="1.5" stroke-miterlimit="10" stroke-linecap="round" stroke-linejoin="round"/>
<path id="Vector_16" d="M14.7021 3.76758H15.9191" stroke="#805DFF" stroke-width="1.5" stroke-miterlimit="10" stroke-linecap="round" stroke-linejoin="round"/>
<path id="Vector_17" d="M16.2841 31L3.62912 18.3171L1.43896 20.5122L11.9036 31" stroke="#805DFF" stroke-width="1.5" stroke-miterlimit="10" stroke-linecap="round" stroke-linejoin="round"/>
<path id="Vector_18" d="M41.5938 31L54.2487 18.3171L56.4389 20.5122L45.9743 31" stroke="#805DFF" stroke-width="1.5" stroke-miterlimit="10" stroke-linecap="round" stroke-linejoin="round"/>
<path id="Vector_19" d="M25.6943 14.6586C25.6943 15.8709 26.675 16.8538 27.8846 16.8538H29.7504C31.0944 16.8538 32.184 15.7617 32.184 14.4146C32.184 13.0676 31.0944 11.9757 29.7504 11.9757H28.1279C26.7839 11.9757 25.6943 10.8836 25.6943 9.53654C25.6943 8.18962 26.7839 7.09755 28.1279 7.09755H29.9937C31.2033 7.09755 32.184 8.08037 32.184 9.2928" stroke="#805DFF" stroke-width="1.5" stroke-miterlimit="10" stroke-linecap="round" stroke-linejoin="round"/>
<path id="Vector_20" d="M28.939 4.65866V7.09766" stroke="#805DFF" stroke-width="1.5" stroke-miterlimit="10" stroke-linecap="round" stroke-linejoin="round"/>
<path id="Vector_21" d="M28.939 16.8537V19.2927" stroke="#805DFF" stroke-width="1.5" stroke-miterlimit="10" stroke-linecap="round" stroke-linejoin="round"/>
<path id="Vector_22" d="M22.8506 2.85119C24.5916 1.68198 26.686 1.00001 28.9391 1.00001C34.9874 1.00001 39.8905 5.91397 39.8905 11.9756C39.8905 18.0372 34.9874 22.9512 28.9391 22.9512C22.8909 22.9512 17.9878 18.0372 17.9878 11.9756C17.9878 9.70676 18.6746 7.59879 19.8515 5.84902" stroke="#805DFF" stroke-width="1.5" stroke-miterlimit="10" stroke-linecap="round" stroke-linejoin="round"/>
</g>
</svg>
