<svg width="56" height="51" viewBox="0 0 56 51" fill="none" xmlns="http://www.w3.org/2000/svg">
<path d="M55.2 50.8081H0.8C0.587827 50.8081 0.384344 50.725 0.234315 50.5771C0.0842855 50.4293 0 50.2287 0 50.0196C0 49.8105 0.0842855 49.6099 0.234315 49.462C0.384344 49.3141 0.587827 49.2311 0.8 49.2311H55.2C55.4122 49.2311 55.6157 49.3141 55.7657 49.462C55.9157 49.6099 56 49.8105 56 50.0196C56 50.2287 55.9157 50.4293 55.7657 50.5771C55.6157 50.725 55.4122 50.8081 55.2 50.8081ZM13.064 46.0218H6.4C6.18783 46.0218 5.98434 45.9387 5.83431 45.7908C5.68429 45.643 5.6 45.4424 5.6 45.2333V36.2363C5.6 36.0271 5.68429 35.8266 5.83431 35.6787C5.98434 35.5308 6.18783 35.4478 6.4 35.4478H13.096C13.3082 35.4478 13.5117 35.5308 13.6617 35.6787C13.8117 35.8266 13.896 36.0271 13.896 36.2363V45.2333C13.8961 45.3395 13.8744 45.4447 13.8322 45.5425C13.79 45.6403 13.7282 45.7286 13.6505 45.8023C13.5728 45.8759 13.4808 45.9334 13.38 45.9711C13.2792 46.0088 13.1717 46.026 13.064 46.0218ZM7.2 44.4448H12.296V37.0248H7.2V44.4448ZM25.256 46.0218H18.552C18.3398 46.0218 18.1363 45.9387 17.9863 45.7908C17.8363 45.643 17.752 45.4424 17.752 45.2333V24.2744C17.752 24.0653 17.8363 23.8647 17.9863 23.7169C18.1363 23.569 18.3398 23.4859 18.552 23.4859H25.256C25.4682 23.4859 25.6717 23.569 25.8217 23.7169C25.9717 23.8647 26.056 24.0653 26.056 24.2744V45.2333C26.056 45.4424 25.9717 45.643 25.8217 45.7908C25.6717 45.9387 25.4682 46.0218 25.256 46.0218ZM19.352 44.4448H24.456V25.063H19.352V44.4448ZM37.448 46.0218H30.744C30.5318 46.0218 30.3283 45.9387 30.1783 45.7908C30.0283 45.643 29.944 45.4424 29.944 45.2333V27.7912C29.944 27.5821 30.0283 27.3815 30.1783 27.2337C30.3283 27.0858 30.5318 27.0027 30.744 27.0027H37.448C37.6602 27.0027 37.8637 27.0858 38.0137 27.2337C38.1637 27.3815 38.248 27.5821 38.248 27.7912V45.2333C38.248 45.4424 38.1637 45.643 38.0137 45.7908C37.8637 45.9387 37.6602 46.0218 37.448 46.0218ZM31.544 44.4448H36.648V28.5798H31.544V44.4448ZM49.6 46.0218H42.936C42.7238 46.0218 42.5203 45.9387 42.3703 45.7908C42.2203 45.643 42.136 45.4424 42.136 45.2333V13.8108C42.136 13.6017 42.2203 13.4011 42.3703 13.2532C42.5203 13.1053 42.7238 13.0223 42.936 13.0223H49.6C49.8122 13.0223 50.0157 13.1053 50.1657 13.2532C50.3157 13.4011 50.4 13.6017 50.4 13.8108V45.2333C50.4 45.4424 50.3157 45.643 50.1657 45.7908C50.0157 45.9387 49.8122 46.0218 49.6 46.0218ZM43.704 44.4448H48.8V14.5993H43.736L43.704 44.4448ZM9.712 25.063C8.94495 25.0614 8.19558 24.8358 7.55857 24.4146C6.92156 23.9934 6.4255 23.3956 6.13306 22.6967C5.84061 21.9977 5.76492 21.2291 5.91553 20.4877C6.06614 19.7464 6.43631 19.0657 6.97925 18.5317C7.5222 17.9976 8.21356 17.6342 8.96599 17.4872C9.71841 17.3403 10.4981 17.4165 11.2067 17.7062C11.9152 17.9959 12.5207 18.486 12.9467 19.1148C13.3726 19.7435 13.6 20.4826 13.6 21.2386C13.6 21.7415 13.4994 22.2395 13.3039 22.704C13.1084 23.1685 12.8219 23.5904 12.4607 23.9456C12.0996 24.3009 11.6709 24.5824 11.1993 24.7741C10.7276 24.9658 10.2222 25.064 9.712 25.063ZM9.712 18.9992C9.26106 19.0008 8.82072 19.1341 8.44666 19.3824C8.0726 19.6306 7.78162 19.9826 7.61052 20.3938C7.43941 20.805 7.39587 21.257 7.4854 21.6927C7.57492 22.1283 7.7935 22.528 8.11348 22.8411C8.43346 23.1543 8.84047 23.367 9.28305 23.4521C9.72564 23.5373 10.1839 23.4912 10.5999 23.3197C11.0159 23.1482 11.371 22.8589 11.6202 22.4885C11.8694 22.1181 12.0016 21.6831 12 21.2386C11.999 20.9435 11.9389 20.6515 11.8234 20.3792C11.7078 20.107 11.539 19.8598 11.3266 19.6519C11.1141 19.4439 10.8622 19.2793 10.5851 19.1673C10.3081 19.0553 10.0114 18.9982 9.712 18.9992ZM21.904 12.218C21.1346 12.2179 20.3825 11.9924 19.7435 11.57C19.1044 11.1477 18.6072 10.5476 18.315 9.84603C18.0228 9.14446 17.9488 8.37311 18.1024 7.63C18.2561 6.88689 18.6304 6.20559 19.1779 5.67268C19.7253 5.13977 20.4211 4.77932 21.1769 4.63715C21.9327 4.49497 22.7143 4.57749 23.4224 4.87421C24.1305 5.17093 24.7331 5.66846 25.1536 6.30356C25.5741 6.93866 25.7935 7.68265 25.784 8.44097C25.7735 9.44767 25.3598 10.4095 24.633 11.1169C23.9063 11.8244 22.9254 12.2201 21.904 12.218ZM21.904 6.15427C21.4548 6.15434 21.0156 6.2852 20.6416 6.53044C20.2675 6.77567 19.9753 7.12435 19.8017 7.53269C19.628 7.94104 19.5805 8.39085 19.6653 8.82567C19.7501 9.26049 19.9633 9.66093 20.2782 9.97674C20.5931 10.2925 20.9956 10.5096 21.4352 10.6007C21.8748 10.6918 22.3319 10.6529 22.7492 10.4889C23.1664 10.3248 23.5252 10.0429 23.7805 9.67857C24.0357 9.31423 24.1761 8.88368 24.184 8.44097C24.1893 8.14255 24.1343 7.84608 24.0221 7.56886C23.9099 7.29164 23.7428 7.03923 23.5305 6.82636C23.3183 6.61348 23.0651 6.44442 22.7859 6.32902C22.5066 6.21363 22.2068 6.15422 21.904 6.15427ZM34.096 22.4214C33.3279 22.423 32.5767 22.1998 31.9374 21.7802C31.2981 21.3606 30.7995 20.7634 30.5049 20.0642C30.2102 19.3651 30.1327 18.5955 30.2822 17.853C30.4316 17.1104 30.8013 16.4282 31.3444 15.8929C31.8875 15.3576 32.5796 14.9932 33.333 14.8459C34.0864 14.6986 34.8672 14.775 35.5765 15.0654C36.2858 15.3558 36.8917 15.8472 37.3174 16.4773C37.7432 17.1075 37.9696 17.8479 37.968 18.605C37.9659 19.6165 37.5573 20.586 36.8316 21.3013C36.1059 22.0166 35.1223 22.4193 34.096 22.4214ZM34.096 16.3577C33.6447 16.3561 33.2031 16.4866 32.8271 16.7326C32.4511 16.9786 32.1577 17.329 31.9839 17.7395C31.8101 18.15 31.7638 18.6021 31.8508 19.0386C31.9379 19.475 32.1544 19.8762 32.473 20.1912C32.7915 20.5063 33.1978 20.7211 33.6402 20.8085C34.0827 20.8958 34.5416 20.8518 34.9587 20.6819C35.3757 20.5121 35.7323 20.2241 35.9832 19.8543C36.2341 19.4846 36.368 19.0498 36.368 18.605C36.3712 18.3082 36.3149 18.0137 36.2023 17.7383C36.0897 17.463 35.9231 17.2123 35.712 17.0006C35.501 16.7889 35.2496 16.6203 34.9722 16.5046C34.6949 16.3889 34.3971 16.3282 34.096 16.3262V16.3577ZM46.288 8.44097C45.5239 8.44093 44.7769 8.21806 44.141 7.80042C43.5052 7.38279 43.0089 6.78905 42.7147 6.09399C42.4205 5.39892 42.3415 4.63359 42.4877 3.89437C42.6339 3.15515 42.9987 2.47509 43.5363 1.93982C44.0738 1.40454 44.7599 1.03799 45.5084 0.886309C46.2568 0.734628 47.0341 0.804604 47.7422 1.08742C48.4504 1.37025 49.0579 1.85327 49.4881 2.47567C49.9183 3.09807 50.1521 3.83202 50.16 4.58511C50.1642 5.08931 50.0672 5.58936 49.8746 6.05648C49.682 6.5236 49.3976 6.94857 49.0378 7.30693C48.6779 7.6653 48.2497 7.94998 47.7778 8.1446C47.3059 8.33923 46.7996 8.43995 46.288 8.44097ZM46.288 2.38515C45.837 2.38521 45.3961 2.51761 45.0217 2.76546C44.6472 3.01332 44.3561 3.36542 44.1854 3.77692C44.0147 4.18841 43.9721 4.64069 44.063 5.07613C44.154 5.51157 44.3744 5.91047 44.6961 6.22203C45.0179 6.53359 45.4265 6.7437 45.8698 6.8256C46.3131 6.90751 46.7711 6.8575 47.1855 6.68194C47.5999 6.50638 47.9519 6.21323 48.1967 5.83981C48.4415 5.4664 48.5679 5.02962 48.56 4.58511C48.5579 3.99183 48.3178 3.42344 47.8922 3.00392C47.4666 2.5844 46.8899 2.3478 46.288 2.34572V2.38515Z" fill="#805DFF"/>
<path d="M36.096 17.1146C35.9431 17.1147 35.7933 17.0715 35.6645 16.9902C35.5357 16.9089 35.4333 16.7929 35.3693 16.656C35.3053 16.5191 35.2825 16.367 35.3035 16.2177C35.3246 16.0684 35.3886 15.9281 35.488 15.8136L43.68 6.37501C43.7448 6.28633 43.8276 6.21189 43.9232 6.15643C44.0187 6.10097 44.1249 6.06569 44.235 6.05284C44.3451 6.03998 44.4568 6.04983 44.5628 6.08176C44.6689 6.11369 44.767 6.167 44.8511 6.23831C44.9351 6.30962 45.0032 6.39737 45.051 6.49599C45.0988 6.59462 45.1252 6.70195 45.1287 6.8112C45.1322 6.92044 45.1126 7.0292 45.0711 7.13058C45.0297 7.23195 44.9673 7.32373 44.888 7.40008L36.704 16.815C36.6312 16.9059 36.539 16.9799 36.4339 17.0316C36.3288 17.0834 36.2134 17.1118 36.096 17.1146ZM31.752 17.43C31.5613 17.4301 31.3769 17.3629 31.232 17.2408L23.728 10.9327C23.6481 10.8653 23.5825 10.7832 23.5349 10.6909C23.4872 10.5986 23.4585 10.498 23.4504 10.3947C23.4422 10.2915 23.4547 10.1876 23.4873 10.0892C23.5198 9.99072 23.5717 9.89953 23.64 9.82084C23.7103 9.73908 23.7967 9.67231 23.8941 9.6246C23.9915 9.57688 24.0977 9.54923 24.2062 9.54333C24.3148 9.53742 24.4234 9.55339 24.5255 9.59026C24.6276 9.62713 24.721 9.68412 24.8 9.75776L32.304 16.0659C32.4283 16.1707 32.517 16.3105 32.5582 16.4665C32.5994 16.6225 32.5912 16.7872 32.5345 16.9384C32.4778 17.0896 32.3755 17.22 32.2413 17.3122C32.1071 17.4043 31.9475 17.4537 31.784 17.4537L31.752 17.43ZM11.816 19.8193C11.6139 19.8186 11.4195 19.7425 11.272 19.6064C11.1921 19.5379 11.1268 19.4544 11.0799 19.3609C11.033 19.2673 11.0054 19.1655 10.9987 19.0613C10.992 18.9572 11.0063 18.8528 11.0409 18.7541C11.0754 18.6555 11.1295 18.5646 11.2 18.4867L19.2 10.0732C19.3453 9.91945 19.5467 9.82895 19.7597 9.82155C19.9727 9.81416 20.18 9.89049 20.336 10.0337C20.4919 10.177 20.5838 10.3754 20.5913 10.5854C20.5988 10.7954 20.5213 10.9997 20.376 11.1534L12.376 19.5669C12.3042 19.6434 12.2177 19.705 12.1216 19.7483C12.0255 19.7916 11.9216 19.8157 11.816 19.8193Z" fill="#805DFF"/>
</svg>
