<svg width="52" height="52" viewBox="0 0 52 52" fill="none" xmlns="http://www.w3.org/2000/svg">
<path d="M40.3775 5.35352C36.3107 2.48969 31.3517 0.807986 25.9998 0.807986C22.6812 0.807986 19.5136 1.45463 16.6162 2.62872" stroke="#805DFF" stroke-width="1.5" stroke-miterlimit="10" stroke-linecap="round" stroke-linejoin="round"/>
<path d="M45.7769 41.1035C49.0513 36.8759 51.0001 31.5697 51.0001 25.8084C51.0001 20.644 49.4342 15.8453 46.7512 11.8613" stroke="#805DFF" stroke-width="1.5" stroke-miterlimit="10" stroke-linecap="round" stroke-linejoin="round"/>
<path d="M6.22327 10.513C2.94878 14.7406 1 20.0468 1 25.8081C1 39.6152 12.1929 50.8081 26 50.8081C29.3186 50.8081 32.4861 50.1616 35.3835 48.9875" stroke="#805DFF" stroke-width="1.5" stroke-miterlimit="10" stroke-linecap="round" stroke-linejoin="round"/>
<path d="M26.0002 9.2601C21.408 9.2601 17.6719 12.9962 17.6719 17.5885V20.3965H21.836V17.5885C21.836 15.2923 23.7041 13.4243 26.0002 13.4243C28.2964 13.4243 30.1645 15.2923 30.1645 17.5885V20.3965H34.3286V17.5885C34.3286 12.9962 30.5925 9.2601 26.0002 9.2601Z" stroke="#805DFF" stroke-width="1.5" stroke-miterlimit="10" stroke-linecap="round" stroke-linejoin="round"/>
<path d="M28.8755 27.4408C28.8755 25.8529 27.5882 24.5656 26.0003 24.5656C24.4123 24.5656 23.125 25.8529 23.125 27.4408C23.125 28.2351 23.4471 28.9541 23.9678 29.4744V32.8947C23.9678 34.0173 24.8777 34.9272 26.0003 34.9272C27.1228 34.9272 28.0328 34.0173 28.0328 32.8947V29.4744C28.5535 28.9541 28.8755 28.2351 28.8755 27.4408Z" stroke="#805DFF" stroke-width="1.5" stroke-miterlimit="10" stroke-linecap="round" stroke-linejoin="round"/>
<path d="M33.9096 20.397H18.09C16.6213 20.397 15.4307 21.5876 15.4307 23.0562V36.4369C15.4307 37.9055 16.6213 39.0962 18.09 39.0962H33.9096C35.3783 39.0962 36.5689 37.9055 36.5689 36.4369V23.0562C36.5689 21.5876 35.3783 20.397 33.9096 20.397Z" stroke="#805DFF" stroke-width="1.5" stroke-miterlimit="10" stroke-linecap="round" stroke-linejoin="round"/>
<path d="M10.9835 8.26336C10.9835 9.8349 9.70956 11.1089 8.13801 11.1089C6.56646 11.1089 5.29248 9.8349 5.29248 8.26336C5.29248 6.69181 6.56646 5.41783 8.13801 5.41783C9.70956 5.41783 10.9835 6.69181 10.9835 8.26336Z" stroke="#805DFF" stroke-width="1.5" stroke-miterlimit="10" stroke-linecap="round" stroke-linejoin="round"/>
<path d="M41.0161 43.3532C41.0161 41.7817 42.2901 40.5077 43.8616 40.5077C45.4332 40.5077 46.7072 41.7817 46.7072 43.3532C46.7072 44.9247 45.4332 46.1987 43.8616 46.1987C42.2901 46.1987 41.0161 44.9247 41.0161 43.3532Z" stroke="#805DFF" stroke-width="1.5" stroke-miterlimit="10" stroke-linecap="round" stroke-linejoin="round"/>
</svg>
