<svg width="60" height="60" viewBox="0 0 60 60" fill="none" xmlns="http://www.w3.org/2000/svg">
<g id="icon">
<path id="Vector" d="M5.45333 31.173C5.14391 31.173 4.84717 31.0501 4.62837 30.8313C4.40958 30.6126 4.28667 30.3159 4.28667 30.0066C4.28667 29.6972 4.40958 29.4005 4.62837 29.1818C4.84717 28.9631 5.14391 28.8402 5.45333 28.8402H8.07333C8.15532 28.8526 8.23902 28.8472 8.31877 28.8245C8.39853 28.8019 8.47249 28.7623 8.53567 28.7086C8.59886 28.6549 8.64979 28.5883 8.68503 28.5133C8.72028 28.4383 8.73902 28.3565 8.74 28.2736C8.74 16.0897 17.6667 6.17194 30.0733 6.17194C33.8491 6.20185 37.5498 7.22972 40.8 9.15127C40.9313 9.22567 41.0467 9.3252 41.1395 9.44418C41.2324 9.56316 41.3009 9.69926 41.3411 9.8447C41.3814 9.99015 41.3926 10.1421 41.3741 10.2919C41.3556 10.4416 41.3077 10.5863 41.2333 10.7176C41.1589 10.8489 41.0593 10.9642 40.9403 11.0571C40.8213 11.1499 40.6852 11.2184 40.5397 11.2586C40.3943 11.2988 40.2423 11.31 40.0925 11.2915C39.9427 11.273 39.798 11.2252 39.6667 11.1508C36.7538 9.41759 33.423 8.51193 30.0333 8.53141C18.9133 8.51142 10.98 17.3428 10.98 28.2736C10.9791 28.3483 10.9931 28.4223 11.0213 28.4915C11.0495 28.5606 11.0912 28.6234 11.144 28.6762C11.1968 28.729 11.2596 28.7707 11.3288 28.7989C11.3979 28.827 11.472 28.8411 11.5467 28.8402H20.8267C20.9669 28.8442 21.1034 28.7948 21.2086 28.702C21.3138 28.6092 21.3799 28.4799 21.3933 28.3403C21.4942 26.3888 22.2519 24.5287 23.5434 23.062C24.8349 21.5954 26.5844 20.6082 28.5077 20.2608C30.4311 19.9134 32.4155 20.2262 34.1386 21.1484C35.8618 22.0707 37.2225 23.5481 38 25.341C38.6667 26.7606 36.5133 27.6071 35.88 26.2608C35.3475 24.9338 34.3798 23.8271 33.1355 23.1224C31.8912 22.4176 30.4443 22.1565 29.0321 22.382C27.6199 22.6075 26.3263 23.3062 25.3635 24.3634C24.4007 25.4206 23.8259 26.7735 23.7333 28.2003C23.7145 28.2831 23.7153 28.3691 23.7355 28.4516C23.7557 28.534 23.7949 28.6106 23.8499 28.6753C23.9049 28.74 23.9742 28.791 24.0523 28.8242C24.1304 28.8574 24.2152 28.872 24.3 28.8668H28.2667C28.3488 28.8804 28.4329 28.8759 28.5132 28.8536C28.5934 28.8314 28.6679 28.7919 28.7313 28.738C28.7948 28.6841 28.8457 28.617 28.8806 28.5414C28.9155 28.4658 28.9335 28.3835 28.9333 28.3003V27.4938C28.9333 27.1933 29.0527 26.9051 29.2653 26.6926C29.4778 26.4801 29.7661 26.3607 30.0667 26.3607C30.3672 26.3607 30.6555 26.4801 30.868 26.6926C31.0806 26.9051 31.2 27.1933 31.2 27.4938V28.2736C31.1991 28.3483 31.2131 28.4223 31.2413 28.4915C31.2695 28.5606 31.3112 28.6234 31.364 28.6762C31.4168 28.729 31.4796 28.7707 31.5487 28.7989C31.6179 28.827 31.692 28.8411 31.7667 28.8402H41.9333C42.0095 28.8474 42.0864 28.8377 42.1584 28.8118C42.2304 28.7858 42.2959 28.7443 42.35 28.6902C42.4041 28.6361 42.4456 28.5707 42.4716 28.4987C42.4975 28.4267 42.5072 28.3498 42.5 28.2736C42.5 24.5211 41.58 21.4018 38.82 18.7091C36.8913 16.7368 34.3569 15.468 31.6219 15.1055C28.887 14.743 26.1094 15.3078 23.7333 16.7096C23.4681 16.8695 23.1502 16.9176 22.8495 16.8433C22.5488 16.7689 22.29 16.5781 22.13 16.313C21.97 16.0478 21.9219 15.73 21.9963 15.4294C22.0707 15.1288 22.2614 14.87 22.5267 14.71C25.346 13.0436 28.6422 12.3685 31.8899 12.7925C35.1376 13.2165 38.1498 14.7151 40.4467 17.0495C43.6333 20.2354 44.84 23.848 44.84 28.2403C44.8391 28.315 44.8531 28.389 44.8813 28.4582C44.9095 28.5273 44.9512 28.5901 45.004 28.6429C45.0568 28.6957 45.1196 28.7374 45.1887 28.7655C45.2579 28.7937 45.332 28.8077 45.4067 28.8068H54.5466C54.8561 28.8068 55.1528 28.9297 55.3716 29.1485C55.5904 29.3672 55.7133 29.6639 55.7133 29.9732C55.7133 30.2826 55.5904 30.5793 55.3716 30.798C55.1528 31.0168 54.8561 31.1397 54.5466 31.1397H51.9267C51.7795 31.1491 51.6407 31.2118 51.5364 31.3161C51.4321 31.4203 51.3694 31.559 51.36 31.7062V37.6582C51.36 39.1445 49.02 39.1445 49.02 37.6582V31.7395C49.0209 31.6649 49.0068 31.5908 48.9787 31.5217C48.9505 31.4525 48.9088 31.3897 48.856 31.3369C48.8032 31.2841 48.7404 31.2424 48.6712 31.2143C48.6021 31.1861 48.528 31.1721 48.4533 31.173H39.2467C39.0995 31.1824 38.9607 31.2451 38.8564 31.3494C38.7521 31.4537 38.6894 31.5924 38.68 31.7395V43.4969C38.68 44.9832 36.34 44.9832 36.34 43.4969V31.7395C36.3409 31.6649 36.3268 31.5908 36.2987 31.5217C36.2705 31.4525 36.2288 31.3897 36.176 31.3369C36.1232 31.2841 36.0604 31.2424 35.9912 31.2143C35.9221 31.1861 35.848 31.1721 35.7733 31.173H18.0667C17.9195 31.1824 17.7807 31.2451 17.6764 31.3494C17.5721 31.4537 17.5094 31.5924 17.5 31.7395V48.0025C17.5 48.303 17.3806 48.5912 17.168 48.8037C16.9555 49.0162 16.6672 49.1356 16.3667 49.1356C16.0661 49.1356 15.7778 49.0162 15.5653 48.8037C15.3527 48.5912 15.2333 48.303 15.2333 48.0025V31.7395C15.2225 31.5928 15.1594 31.4549 15.0553 31.3509C14.9513 31.2469 14.8134 31.1838 14.6667 31.173H5.45333ZM21.3933 45.4831C21.3933 45.1826 21.5127 44.8944 21.7253 44.6819C21.9378 44.4694 22.2261 44.35 22.5267 44.35C22.8272 44.35 23.1155 44.4694 23.328 44.6819C23.5406 44.8944 23.66 45.1826 23.66 45.4831V52.7081C23.66 53.0086 23.5406 53.2968 23.328 53.5093C23.1155 53.7218 22.8272 53.8412 22.5267 53.8412C22.2261 53.8412 21.9378 53.7218 21.7253 53.5093C21.5127 53.2968 21.3933 53.0086 21.3933 52.7081V45.4831ZM21.3933 34.1523C21.3933 33.8518 21.5127 33.5636 21.7253 33.3511C21.9378 33.1386 22.2261 33.0192 22.5267 33.0192C22.8272 33.0192 23.1155 33.1386 23.328 33.3511C23.5406 33.5636 23.66 33.8518 23.66 34.1523V40.0043C23.66 40.3048 23.5406 40.593 23.328 40.8055C23.1155 41.018 22.8272 41.1374 22.5267 41.1374C22.2261 41.1374 21.9378 41.018 21.7253 40.8055C21.5127 40.593 21.3933 40.3048 21.3933 40.0043V34.1523ZM28.9 34.1523C28.9 33.8518 29.0194 33.5636 29.2319 33.3511C29.4445 33.1386 29.7327 33.0192 30.0333 33.0192C30.3339 33.0192 30.6222 33.1386 30.8347 33.3511C31.0473 33.5636 31.1667 33.8518 31.1667 34.1523V46.5428C31.1667 46.8434 31.0473 47.1316 30.8347 47.3441C30.6222 47.5565 30.3339 47.6759 30.0333 47.6759C29.7327 47.6759 29.4445 47.5565 29.2319 47.3441C29.0194 47.1316 28.9 46.8434 28.9 46.5428V34.1523ZM42.5 34.219C42.5 32.7326 44.84 32.7326 44.84 34.219V52.7081C44.84 54.1945 42.5 54.1945 42.5 52.7081V34.219ZM17.64 25.7209C17.5931 26.0214 17.4288 26.291 17.1831 26.4703C16.9375 26.6497 16.6306 26.7242 16.33 26.6773C16.0294 26.6305 15.7598 26.4662 15.5804 26.2206C15.4009 25.9749 15.3265 25.6681 15.3733 25.3676C15.8016 22.4635 17.0824 19.7519 19.0533 17.576C20.0467 16.443 21.72 18.0026 20.7533 19.1357C19.0929 20.9786 18.0104 23.2684 17.64 25.7209ZM8.71333 34.1523C8.71333 33.8518 8.83274 33.5636 9.04528 33.3511C9.25782 33.1386 9.54609 33.0192 9.84666 33.0192C10.1472 33.0192 10.4355 33.1386 10.6481 33.3511C10.8606 33.5636 10.98 33.8518 10.98 34.1523V41.7973C10.98 42.0978 10.8606 42.386 10.6481 42.5985C10.4355 42.811 10.1472 42.9303 9.84666 42.9303C9.54609 42.9303 9.25782 42.811 9.04528 42.5985C8.83274 42.386 8.71333 42.0978 8.71333 41.7973V34.1523ZM51.2133 25.2943C51.4267 26.7873 49.0933 27.0672 48.9466 25.5809C48.4672 20.9984 46.3568 16.7406 43 13.5836C42.8884 13.4812 42.798 13.3578 42.7341 13.2205C42.6702 13.0832 42.6339 12.9346 42.6274 12.7833C42.6209 12.632 42.6443 12.4808 42.6962 12.3385C42.7481 12.1962 42.8276 12.0656 42.93 11.954C43.0324 11.8424 43.1558 11.752 43.2932 11.6881C43.4305 11.6242 43.5791 11.588 43.7305 11.5815C43.8819 11.575 44.033 11.5983 44.1753 11.6503C44.3177 11.7022 44.4484 11.7816 44.56 11.884C48.3276 15.3926 50.696 20.1473 51.2266 25.2676L51.2133 25.2943ZM2.34 12.0506C2.34 12.3609 2.21673 12.6584 1.99731 12.8777C1.7779 13.0971 1.4803 13.2204 1.17 13.2204C0.859697 13.2204 0.562102 13.0971 0.342685 12.8777C0.123267 12.6584 0 12.3609 0 12.0506V4.61896C0.0259692 3.39525 0.527831 2.22982 1.39909 1.36995C2.27036 0.510084 3.44245 0.023457 4.66667 0.0133303H12.1133C13.6 0.0133303 13.6 2.3528 12.1133 2.3528H4.66667C4.36438 2.34751 4.06404 2.40203 3.7829 2.51321C3.50177 2.6244 3.24541 2.79007 3.02855 3.00068C2.8117 3.21129 2.63864 3.46269 2.51932 3.74042C2.40001 4.01815 2.3368 4.31672 2.33333 4.61896L2.34 12.0506ZM12.1133 57.6603C13.6 57.6603 13.6 59.9998 12.1133 59.9998H4.66667C3.43931 59.9999 2.26133 59.5166 1.38787 58.6546C0.514403 57.7925 0.0157802 56.6212 0 55.3942V47.9625C0.0222876 47.6675 0.155226 47.3919 0.372187 47.1907C0.589148 46.9896 0.874112 46.8778 1.17 46.8778C1.46589 46.8778 1.75085 46.9896 1.96781 47.1907C2.18477 47.3919 2.31771 47.6675 2.34 47.9625V55.3942C2.34347 55.6964 2.40668 55.995 2.52599 56.2727C2.6453 56.5505 2.81837 56.8019 3.03522 57.0125C3.25207 57.2231 3.50844 57.3887 3.78957 57.4999C4.0707 57.6111 4.37105 57.6656 4.67333 57.6603H12.1133ZM47.96 2.33947C47.6649 2.31719 47.3892 2.18428 47.188 1.96737C46.9868 1.75046 46.875 1.46556 46.875 1.16974C46.875 0.873915 46.9868 0.589016 47.188 0.372103C47.3892 0.155191 47.6649 0.0222825 47.96 0H55.3933C56.6125 0.0156134 57.7772 0.507681 58.6381 1.37092C59.4991 2.23415 59.9879 3.39998 60 4.61896V12.0506C60 12.3511 59.8806 12.6393 59.668 12.8518C59.4555 13.0643 59.1672 13.1837 58.8666 13.1837C58.5661 13.1837 58.2778 13.0643 58.0653 12.8518C57.8527 12.6393 57.7333 12.3511 57.7333 12.0506V4.61896C57.7299 4.31615 57.6664 4.01702 57.5467 3.73885C57.427 3.46068 57.2533 3.20898 57.0357 2.99828C56.8182 2.78758 56.561 2.62205 56.2791 2.51127C55.9972 2.40048 55.6962 2.34662 55.3933 2.3528L47.96 2.33947ZM57.7333 47.9625C57.7333 47.662 57.8527 47.3738 58.0653 47.1613C58.2778 46.9488 58.5661 46.8294 58.8666 46.8294C59.1672 46.8294 59.4555 46.9488 59.668 47.1613C59.8806 47.3738 60 47.662 60 47.9625V55.3942C60.0017 55.9995 59.8838 56.5992 59.6529 57.1588C59.422 57.7183 59.0828 58.2268 58.6546 58.6548C58.2265 59.0828 57.718 59.422 57.1583 59.6528C56.5986 59.8837 55.9988 60.0016 55.3933 59.9998H47.96C47.8104 60.0025 47.6618 59.9751 47.5231 59.9191C47.3844 59.8631 47.2583 59.7798 47.1526 59.674C47.0468 59.5682 46.9634 59.4422 46.9074 59.3035C46.8514 59.1648 46.8239 59.0163 46.8266 58.8667C46.8194 58.5572 46.9342 58.2572 47.1462 58.0315C47.3582 57.8058 47.6505 57.6725 47.96 57.6603H55.3933C55.6962 57.6665 55.9972 57.6127 56.2791 57.5019C56.561 57.3911 56.8182 57.2256 57.0357 57.0149C57.2533 56.8042 57.427 56.5525 57.5467 56.2743C57.6664 55.9961 57.7299 55.697 57.7333 55.3942V47.9625Z" fill="#805DFF"/>
</g>
</svg>
