<svg width="60" height="60" viewBox="0 0 60 60" fill="none" xmlns="http://www.w3.org/2000/svg">
<g id="icon">
<path id="Vector" d="M13.0128 3.03903e-08C10.3625 -7.73402e-05 7.77549 0.810942 5.59897 2.32425C4.46593 3.0801 5.63674 4.76565 6.73579 3.96823C8.99127 2.40085 11.7514 1.73516 14.4728 2.10218C17.1942 2.46921 19.6798 3.84236 21.4401 5.95133C23.2004 8.06029 24.108 10.7523 23.9841 13.4973C23.8603 16.2423 22.714 18.8415 20.7709 20.7831C18.8279 22.7248 16.2288 23.8683 13.4854 23.9884C10.742 24.1086 8.05304 23.1967 5.94787 21.4323C3.8427 19.668 2.47386 17.179 2.11081 14.4553C1.74777 11.7316 2.41683 8.97054 3.98627 6.71575C4.78696 5.61598 3.09873 4.44441 2.34714 5.57819C0.687553 7.96624 -0.123783 10.8422 0.0428999 13.7461C0.209583 16.6501 1.34465 19.4142 3.26657 21.5964C5.18849 23.7786 7.78623 25.2528 10.6443 25.7833C13.5024 26.3138 16.4557 25.8698 19.0318 24.5225C21.608 23.1751 23.6582 21.0022 24.8545 18.3513C26.0509 15.7003 26.3243 12.7245 25.6309 9.89975C24.9376 7.07499 23.3176 4.56449 21.0301 2.76977C18.7426 0.975051 15.9196 -0.00019878 13.0128 3.03903e-08ZM13.0128 3.98712C12.5105 3.98712 12.012 4.3197 12.012 4.98863V6.13752C11.1574 6.3601 10.4003 6.85918 9.85857 7.55707C9.31688 8.25496 9.02099 9.11249 9.01697 9.99615C9.01897 11.0553 9.44008 12.0706 10.1882 12.8199C10.9363 13.5693 11.9506 13.9916 13.0091 13.9946C14.1232 13.9946 15.007 14.879 15.007 15.9976C15.007 17.1125 14.1232 18.0006 13.0053 18.0006C12.7428 18.0016 12.4828 17.9504 12.2403 17.8499C11.9979 17.7494 11.7778 17.6017 11.5929 17.4153C11.408 17.2289 11.2621 17.0076 11.1635 16.7642C11.0649 16.5208 11.0157 16.2602 11.0187 15.9976C11.0489 14.6333 8.98676 14.6333 9.01697 15.9976C9.01697 17.8495 10.3011 19.4065 12.012 19.8525V20.9938C12.012 22.3279 14.0137 22.3279 14.0137 20.9938V19.8525C15.7246 19.399 17.0087 17.8457 17.0087 15.9976C17.0087 13.7981 15.2034 11.9954 13.0053 11.9954C12.743 11.9969 12.4831 11.9461 12.2406 11.8461C11.9982 11.746 11.778 11.5986 11.5931 11.4125C11.4082 11.2264 11.2622 11.0053 11.1635 10.7621C11.0649 10.519 11.0157 10.2586 11.0187 9.99615C11.0187 8.88126 11.8911 7.99314 13.0091 7.99314C14.1232 7.99314 15.007 8.88126 15.007 9.99615C15.007 11.3302 17.0087 11.3302 17.0087 9.99615C17.0087 8.14431 15.7246 6.59103 14.0099 6.1413V4.98863C14.0099 4.3197 13.5114 3.98712 13.0128 3.98712ZM46.9851 5.99391H52.7032C50.2898 9.05133 30.5636 32.9967 4.01649 32.9967C2.65684 32.9665 2.65684 35.0262 4.01649 34.9997C30.5863 34.9997 50.1992 12.3128 53.9836 7.60765V13.0007C54.0176 14.3045 55.955 14.3045 55.9853 13.0007V4.99996C55.9848 4.86844 55.9584 4.73831 55.9076 4.61699C55.8569 4.49567 55.7827 4.38555 55.6894 4.2929C55.5962 4.20025 55.4855 4.1269 55.3639 4.07702C55.2423 4.02715 55.1121 4.00174 54.9806 4.00224H46.9361C45.6633 4.15341 45.7501 5.9599 46.9851 5.99391ZM1.02149 59.9996H58.9803C60.3399 60.026 60.3399 57.9663 58.9803 57.9965H55.9853V32.9967C55.9853 32.7311 55.8798 32.4764 55.6921 32.2886C55.5044 32.1007 55.2499 31.9952 54.9844 31.9952C54.719 31.9952 54.4644 32.1007 54.2767 32.2886C54.089 32.4764 53.9836 32.7311 53.9836 32.9967V57.9965H47.9898V25.9975H53.9873V28.9945C53.9873 30.3286 55.9853 30.3286 55.9853 28.9945V24.996C55.9848 24.8645 55.9584 24.7344 55.9076 24.6131C55.8569 24.4917 55.7827 24.3816 55.6894 24.289C55.5962 24.1963 55.4855 24.123 55.3639 24.0731C55.2423 24.0232 55.1121 23.9978 54.9806 23.9983H46.9851C46.721 23.9993 46.468 24.1047 46.2812 24.2916C46.0944 24.4785 45.9891 24.7317 45.9881 24.996V57.9965H41.9922V32.9967C41.9902 32.7331 41.8844 32.4809 41.6978 32.2948C41.5111 32.1087 41.2586 32.0038 40.9951 32.0028H32.9506C32.6947 32.0153 32.4532 32.1252 32.2756 32.3099C32.098 32.4947 31.9976 32.7404 31.995 32.9967V57.9965H27.9954V40.9974C27.9954 40.7331 27.891 40.4795 27.7049 40.2919C27.5189 40.1043 27.2662 39.9979 27.0021 39.9959H19.0066C18.7418 39.9969 18.4882 40.1029 18.3013 40.2906C18.1145 40.4783 18.0095 40.7325 18.0095 40.9974V57.9965H14.0099V49.0019C14.0104 48.8701 13.9849 48.7394 13.9348 48.6175C13.8847 48.4955 13.8111 48.3847 13.7181 48.2913C13.6251 48.1979 13.5146 48.1238 13.3929 48.0732C13.2713 48.0227 13.1408 47.9966 13.0091 47.9966H5.02112C4.88937 47.9961 4.75881 48.0217 4.63695 48.0718C4.51508 48.1219 4.4043 48.1956 4.31097 48.2886C4.21763 48.3817 4.14357 48.4922 4.09303 48.614C4.0425 48.7357 4.01649 48.8663 4.01649 48.9981V57.9965H0.968611C-0.379706 58.0948 -0.281509 60.0336 1.02149 59.9996ZM33.993 33.9982H39.9943V57.9965H33.993V33.9982ZM20.0075 41.9952H26.0088V57.9965H20.0075V41.9952ZM6.01442 49.9959H12.012V57.9965H6.01442V49.9959Z" fill="#805DFF"/>
</g>
</svg>
