<svg width="50" height="60" viewBox="0 0 50 60" fill="none" xmlns="http://www.w3.org/2000/svg">
<g id="icon">
<path id="Vector" d="M26.2963 42.6853C26.4406 43.8757 26.1223 44.962 25.3756 45.8268C24.4923 46.8498 23.0205 47.5343 21.3465 47.7229V49.0068C21.3465 49.2635 21.2447 49.5096 21.0635 49.6911C20.8823 49.8726 20.6366 49.9746 20.3803 49.9746C20.1241 49.9746 19.8783 49.8726 19.6971 49.6911C19.516 49.5096 19.4142 49.2635 19.4142 49.0068V47.709C16.9394 47.3757 15.0145 45.8129 14.4585 43.5792C14.4278 43.4559 14.4217 43.3278 14.4404 43.2021C14.4592 43.0764 14.5025 42.9556 14.5678 42.8467C14.6332 42.7377 14.7193 42.6428 14.8213 42.5672C14.9233 42.4916 15.0391 42.4368 15.1622 42.4061C15.2854 42.3753 15.4133 42.3692 15.5388 42.388C15.6643 42.4067 15.7848 42.4501 15.8936 42.5156C16.0024 42.581 16.0972 42.6673 16.1727 42.7694C16.2481 42.8716 16.3028 42.9877 16.3335 43.111C16.8307 45.1084 18.779 45.8233 20.3752 45.8394C20.3837 45.8393 20.3923 45.8395 20.4007 45.8396C20.4544 45.8394 20.5075 45.8394 20.5601 45.8381C21.9564 45.8048 23.2729 45.3034 23.914 44.5606C24.3053 44.1075 24.4571 43.5703 24.3781 42.9185C24.1917 41.3803 22.9148 40.4979 20.2379 40.0579C16.0137 39.3631 15.0302 37.2204 14.9492 35.5453C14.8366 33.2238 16.46 31.278 18.9888 30.7035C19.1296 30.6716 19.2715 30.6446 19.4142 30.6226V29.311C19.4142 29.0543 19.516 28.8082 19.6971 28.6267C19.8783 28.4452 20.1241 28.3432 20.3803 28.3432C20.6366 28.3432 20.8823 28.4452 21.0635 28.6267C21.2447 28.8082 21.3465 29.0543 21.3465 29.311V30.6143C23.1598 30.8773 24.9518 31.9251 25.8452 34.0568C25.9423 34.293 25.9422 34.5581 25.8449 34.7943C25.7476 35.0304 25.561 35.2185 25.3258 35.3174C25.0907 35.4163 24.826 35.418 24.5896 35.3222C24.3531 35.2264 24.1641 35.0409 24.0637 34.806C23.3696 33.1505 21.8846 32.4784 20.4517 32.476C20.4116 32.4789 20.3714 32.4794 20.3313 32.4774C20.0197 32.4849 19.7119 32.524 19.4162 32.5911C18.1368 32.8817 16.7984 33.7858 16.8792 35.4515C16.9045 35.9733 16.9814 37.561 20.551 38.148C21.862 38.3636 25.852 39.0196 26.2963 42.6853ZM49.6117 48.7628L40.5725 59.4265C40.2591 59.7963 39.8198 59.9999 39.3355 59.9999C38.8514 59.9999 38.412 59.7962 38.0986 59.4266L34.4819 55.16C30.7556 58.2947 25.9525 60 20.8123 60C20.6866 60 20.5611 59.9989 20.435 59.997C20.3118 59.999 20.1886 59.9999 20.0654 59.9999C12.6158 60.0002 5.85021 56.3534 2.33993 50.4204C-0.845353 45.0368 -0.77567 38.6135 2.53099 32.798C4.60073 29.1579 7.77057 25.0363 12.4469 19.9123C11.1187 19.3072 10.1924 17.9664 10.1924 16.4121C10.1924 14.3234 11.8645 12.6197 13.9382 12.5706L10.8839 9.51133C9.35663 7.98157 9.35663 5.49254 10.8839 3.9629C12.1765 2.66806 14.232 2.44694 15.7715 3.43669C15.9369 3.5429 16.0987 3.55742 16.2803 3.48218C16.4616 3.40694 16.5658 3.28222 16.6077 3.08976C16.9978 1.29968 18.6073 0.000241935 20.4349 0C22.2625 0 23.8722 1.29931 24.2626 3.08952C24.3045 3.2821 24.4086 3.40694 24.5902 3.4823C24.7715 3.55754 24.9332 3.5429 25.0987 3.43669C26.6381 2.44706 28.6935 2.66806 29.9862 3.96278C31.5134 5.49266 31.5134 7.98181 29.9863 9.51145L26.932 12.5707C29.0057 12.62 30.6778 14.3237 30.6778 16.4123C30.6778 17.9665 29.7515 19.3073 28.4233 19.9124C30.3934 22.0714 32.0906 24.0474 33.5512 25.883C33.6596 24.7244 34.6352 23.8143 35.8196 23.8143H42.8516C44.1085 23.8144 45.131 24.8387 45.1309 26.0975V46.0859H48.3747C49.0146 46.0859 49.5789 46.4473 49.8474 47.0289C50.1159 47.6098 50.0257 48.2744 49.6117 48.7628ZM12.2501 8.1427L16.6686 12.5682H24.2018L28.62 8.1427C29.3938 7.36754 29.3938 6.10645 28.62 5.33141C27.9651 4.6754 26.9231 4.56351 26.1425 5.0654C25.4479 5.51177 24.6126 5.58653 23.8506 5.2702C23.0886 4.95399 22.5507 4.3096 22.3747 3.50226C22.1768 2.59452 21.361 1.93548 20.435 1.93548C19.5091 1.9356 18.6934 2.59464 18.4956 3.50238C18.3196 4.30972 17.7817 4.95411 17.0196 5.27032C16.2573 5.58629 15.422 5.51165 14.7278 5.06552C13.9471 4.56351 12.9051 4.6754 12.25 5.33141C11.4762 6.10645 11.4762 7.36766 12.2501 8.1427ZM12.1247 16.4121C12.1247 17.4644 12.9793 18.3204 14.0299 18.3204H26.8401C27.8907 18.3204 28.7454 17.4644 28.7454 16.4122C28.7454 15.3599 27.8907 14.5038 26.8401 14.5038H14.0299C12.9793 14.5037 12.1247 15.3598 12.1247 16.4121ZM33.2315 53.6848L29.0595 48.7629C28.6454 48.2741 28.5553 47.6095 28.8239 47.0281C29.0924 46.4469 29.6566 46.0856 30.2964 46.0856H33.5403V29.0388C31.6218 26.4533 29.1861 23.5738 26.1115 20.256H14.758C9.69116 25.7237 6.33389 30.0207 4.20992 33.7559C1.21292 39.0269 1.13913 44.5948 4.00208 49.4338C7.21974 54.8723 13.5118 58.1774 20.4186 58.0616C20.4295 58.0614 20.4403 58.0614 20.4512 58.0616C25.2682 58.1442 29.7683 56.5946 33.2315 53.6848ZM39.1002 58.173C39.0999 58.1733 39.0997 58.1736 39.0994 58.1739L39.1002 58.173ZM47.7057 48.0212H44.1647C43.9085 48.0212 43.6627 47.9192 43.4816 47.7377C43.3004 47.5562 43.1986 47.3101 43.1986 47.0534V26.0971C43.1986 25.9086 43.0398 25.7496 42.8516 25.7496H35.8196C35.6315 25.7496 35.4726 25.9087 35.4726 26.0972V47.0533C35.4726 47.31 35.3708 47.5561 35.1896 47.7376C35.0084 47.9191 34.7627 48.021 34.5065 48.021H30.9655L39.3357 57.8954L47.7057 48.0212Z" fill="#805DFF"/>
</g>
</svg>
