<svg width="50" height="51" viewBox="0 0 50 51" fill="none" xmlns="http://www.w3.org/2000/svg">
<path d="M24.9711 0.808105C24.0748 0.808105 23.1792 0.856286 22.2881 0.952334C21.4713 1.03576 20.6646 1.17259 19.8686 1.33861C19.7142 1.37095 19.5602 1.40488 19.4064 1.4404C14.717 2.50809 10.435 4.90574 7.07391 8.34585C6.75976 8.66793 6.45375 8.99785 6.15619 9.33532C-2.92302 19.7586 -1.83343 35.5684 8.58993 44.6476C18.5689 53.3398 33.5899 52.7615 42.871 43.3278C43.1854 43.006 43.4914 42.6761 43.7887 42.3383C47.7955 37.7753 50.0035 31.9093 50 25.8368C50 12.0137 38.7942 0.808001 24.9711 0.808105ZM8.18602 9.59729C8.31784 9.46046 8.45467 9.32948 8.58899 9.19683C8.74417 9.04415 8.89851 8.89064 9.05703 8.74297C9.19635 8.61282 9.33985 8.48768 9.48252 8.36086C9.64353 8.2182 9.80372 8.07553 9.96891 7.93788C10.1141 7.81523 10.2634 7.6976 10.4119 7.57913C10.5788 7.44564 10.7456 7.31216 10.9175 7.18367C11.0693 7.06973 11.2231 6.95848 11.3789 6.84996C11.5516 6.72648 11.7251 6.59967 11.9011 6.48454C12.0589 6.37822 12.218 6.27393 12.3784 6.17168C12.556 6.05717 12.7356 5.94591 12.9173 5.83796C13.2624 5.63194 13.6121 5.4336 13.966 5.24311C14.1329 5.15415 14.2997 5.06707 14.4666 4.98197C14.657 4.8863 14.8486 4.79313 15.0414 4.70248C15.2083 4.62323 15.3818 4.54397 15.5537 4.46888C15.7497 4.38545 15.9483 4.30202 16.1469 4.21859C16.3196 4.14768 16.4914 4.07843 16.6658 4.01169C16.8677 3.93493 17.0721 3.86319 17.2765 3.79144C17.451 3.72977 17.6263 3.66998 17.8021 3.61206C18.0098 3.54532 18.2192 3.48358 18.4295 3.42268C18.6055 3.37179 18.7799 3.31923 18.9568 3.27167C19.0243 3.25415 19.0919 3.23997 19.1595 3.22245C16.69 5.62036 14.8573 8.59623 13.8275 11.8807C11.8473 11.3585 9.93035 10.6207 8.11094 9.68071C8.13847 9.65152 8.16183 9.62231 8.18602 9.59729ZM6.98631 10.9405C8.99039 12.0264 11.1156 12.8721 13.3178 13.4601C12.2382 17.2139 11.6715 21.0967 11.6333 25.0025H1.63014C1.81188 19.8519 3.69546 14.9068 6.98631 10.9405ZM6.98631 40.7331C3.69566 36.7667 1.81211 31.8216 1.63014 26.6711H11.6333C11.6715 30.577 12.2381 34.4597 13.3178 38.2136C11.1156 38.8017 8.99047 39.6474 6.98631 40.7331ZM18.9518 48.4053C18.7832 48.3627 18.6089 48.3077 18.4353 48.2568C18.2242 48.1951 18.0123 48.1333 17.8038 48.0657C17.6277 48.009 17.4542 47.9481 17.2807 47.8872C17.0751 47.8169 16.8706 47.7432 16.6675 47.6661C16.4945 47.5998 16.3223 47.5314 16.151 47.4609C15.9516 47.3774 15.7522 47.294 15.5545 47.2106C15.3842 47.1354 15.2148 47.0581 15.0464 46.9787C14.852 46.8869 14.6585 46.7934 14.4624 46.6967C14.2956 46.6132 14.1287 46.5298 13.9618 46.4389C13.7733 46.3379 13.5864 46.2345 13.3995 46.1277C13.2327 46.0351 13.0742 45.94 12.9131 45.8432C12.73 45.7328 12.5487 45.6197 12.3692 45.5036C12.2107 45.4027 12.0521 45.3001 11.8961 45.1949C11.7184 45.0739 11.5423 44.9504 11.368 44.8245C11.2153 44.7152 11.0627 44.6059 10.9125 44.4908C10.7403 44.3602 10.5701 44.2269 10.4019 44.0912C10.2542 43.9735 10.1074 43.8567 9.96307 43.7358C9.79621 43.5973 9.63519 43.4529 9.47334 43.3094C9.33151 43.1835 9.18884 43.0591 9.05035 42.9307C8.891 42.7822 8.73666 42.6278 8.58148 42.4751C8.44716 42.3425 8.31033 42.2115 8.17851 42.0755C8.15432 42.0496 8.13096 42.0229 8.10677 41.9979C9.92607 41.0575 11.8431 40.3194 13.8233 39.7971C14.8534 43.0815 16.686 46.0573 19.1553 48.4554C19.0877 48.4378 19.0193 48.4236 18.9518 48.4053ZM24.1369 49.1311C20.5669 48.6239 17.4375 44.8979 15.4686 39.3958C18.3152 38.7583 21.22 38.4164 24.1369 38.3754V49.1311ZM24.1369 36.7068C21.0427 36.7475 17.9616 37.115 14.9446 37.8031C13.8971 34.1836 13.3445 30.4389 13.3019 26.6711H24.1369V36.7068ZM24.1369 25.0025H13.3019C13.3444 21.2347 13.897 17.49 14.9446 13.8705C17.9616 14.5585 21.0428 14.926 24.1369 14.9668V25.0025ZM24.1369 13.2982C21.22 13.2575 18.3152 12.9156 15.4686 12.2779C17.4375 6.7757 20.5669 3.04975 24.1369 2.5425V13.2982ZM42.9561 10.9405C46.2467 14.9069 48.1303 19.852 48.3122 25.0025H38.309C38.2709 21.0967 37.7043 17.2139 36.6246 13.4601C38.8267 12.8718 40.9519 12.0261 42.9561 10.9405ZM30.9839 3.2675C31.1591 3.31088 31.3335 3.36595 31.507 3.41684C31.7181 3.47858 31.93 3.54031 32.1386 3.60789C32.3146 3.66462 32.4882 3.72553 32.6617 3.78643C32.8669 3.85734 33.0722 3.92993 33.2749 4.00752C33.4484 4.07343 33.6195 4.14267 33.7913 4.21275C33.9907 4.29618 34.1901 4.37961 34.3879 4.46304C34.5581 4.53813 34.7274 4.61541 34.8959 4.69498C35.0903 4.78675 35.2839 4.88019 35.4799 4.97697C35.6468 5.0604 35.8137 5.14383 35.9805 5.23476C36.1691 5.33571 36.356 5.43917 36.5428 5.54596C36.7097 5.63856 36.8682 5.73367 37.0292 5.83045C37.2123 5.94078 37.3937 6.05398 37.5732 6.17001C37.7317 6.27096 37.8902 6.37358 38.0462 6.4787C38.2237 6.59942 38.3995 6.72263 38.5735 6.84829C38.7275 6.95729 38.8799 7.06854 39.0307 7.18201C39.2026 7.31132 39.3711 7.44564 39.5405 7.5808C39.6873 7.6976 39.835 7.8144 39.9793 7.93621C40.1462 8.0747 40.3072 8.21903 40.469 8.36253C40.6109 8.48851 40.7535 8.61282 40.892 8.7413C41.0514 8.8898 41.2057 9.04415 41.3609 9.19683C41.4952 9.32948 41.632 9.46046 41.7639 9.59645C41.788 9.62231 41.8114 9.64901 41.8356 9.67404C40.0163 10.6145 38.0993 11.3525 36.119 11.8749C35.087 8.59008 33.2521 5.61448 30.7804 3.21744C30.8479 3.23496 30.9164 3.24914 30.9839 3.2675ZM25.8055 2.5425C29.3754 3.04975 32.5049 6.7757 34.4738 12.2779C31.6271 12.9153 28.7223 13.2572 25.8055 13.2982V2.5425ZM25.8055 14.9668C28.8996 14.9261 31.9808 14.5586 34.9977 13.8705C36.0453 17.49 36.5979 21.2347 36.6404 25.0025H25.8055V14.9668ZM25.8055 26.6711H36.6404C36.598 30.4389 36.0454 34.1836 34.9977 37.8031C31.9808 37.1151 28.8996 36.7476 25.8055 36.7068V26.6711ZM25.8055 49.1311V38.3754C28.7224 38.4161 31.6272 38.758 34.4738 39.3958C32.5049 44.8979 29.3754 48.6239 25.8055 49.1311ZM41.7563 42.0763C41.6245 42.2123 41.4885 42.3433 41.3542 42.476C41.199 42.6286 41.0439 42.783 40.8845 42.9315C40.746 43.0608 40.6033 43.1818 40.4615 43.3111C40.2997 43.4546 40.1386 43.5981 39.9735 43.7366C39.8275 43.8584 39.6789 43.976 39.5304 44.0945C39.3636 44.228 39.1967 44.3615 39.0249 44.49C38.873 44.6039 38.7192 44.7151 38.5635 44.8237C38.3908 44.9471 38.2173 45.074 38.0412 45.1891C37.8837 45.2954 37.7246 45.3994 37.564 45.5011C37.3862 45.6158 37.2063 45.7271 37.0242 45.8348C36.8574 45.9324 36.698 46.0276 36.5337 46.1218C36.1857 46.32 35.8329 46.5097 35.4758 46.6908C35.2854 46.7865 35.0938 46.8797 34.9009 46.9703C34.7341 47.0496 34.5606 47.1288 34.3887 47.2039C34.1926 47.2873 33.9941 47.3708 33.7955 47.4542C33.6228 47.5243 33.4509 47.5944 33.2774 47.6603C33.0738 47.7379 32.8694 47.8104 32.6642 47.8814C32.4906 47.9431 32.3162 48.0026 32.1411 48.0599C31.9325 48.1275 31.724 48.1892 31.5112 48.2501C31.3368 48.3018 31.1616 48.3536 30.9856 48.4011C30.918 48.4186 30.8505 48.4328 30.7829 48.4503C33.2524 46.0524 35.085 43.0766 36.1148 39.792C38.095 40.3143 40.012 41.052 41.8314 41.9921C41.8039 42.0221 41.7805 42.0513 41.7563 42.0763ZM42.9561 40.7331C40.952 39.6473 38.8268 38.8016 36.6246 38.2136C37.7042 34.4597 38.2708 30.577 38.309 26.6711H48.3122C48.1305 31.8217 46.2469 36.7668 42.9561 40.7331Z" fill="#805DFF"/>
</svg>
