<svg width="60" height="60" viewBox="0 0 60 60" fill="none" xmlns="http://www.w3.org/2000/svg">
<g id="icon">
<path id="Vector" d="M30 0C13.4579 0 0 13.4579 0 30C0 46.5421 13.4579 60 30 60C46.5421 60 60 46.5421 60 30C60 13.4579 46.5421 0 30 0ZM30 58.125C14.4919 58.125 1.875 45.5081 1.875 30C1.875 14.4919 14.4919 1.875 30 1.875C45.5081 1.875 58.125 14.4919 58.125 30C58.125 45.5081 45.5081 58.125 30 58.125ZM18.4829 30C18.4829 32.2779 19.1584 34.5046 20.4239 36.3987C21.6894 38.2927 23.4881 39.7689 25.5926 40.6406C27.6971 41.5123 30.0129 41.7404 32.247 41.296C34.4811 40.8516 36.5333 39.7547 38.144 38.144C39.7547 36.5333 40.8516 34.4811 41.296 32.247C41.7404 30.0129 41.5123 27.6971 40.6406 25.5926C39.7689 23.4881 38.2927 21.6894 36.3987 20.4239C34.5046 19.1584 32.2779 18.4829 30 18.4829C26.9465 18.4864 24.0192 19.7009 21.86 21.86C19.7009 24.0192 18.4864 26.9465 18.4829 30ZM39.6422 30C39.6422 31.907 39.0767 33.7713 38.0172 35.3569C36.9578 36.9426 35.4519 38.1785 33.69 38.9083C31.9281 39.6381 29.9894 39.8291 28.119 39.457C26.2486 39.085 24.5305 38.1667 23.182 36.8182C21.8335 35.4697 20.9151 33.7517 20.5431 31.8813C20.171 30.0109 20.362 28.0721 21.0918 26.3102C21.8216 24.5484 23.0574 23.0424 24.6431 21.9829C26.2287 20.9234 28.093 20.3579 30 20.3579C32.5564 20.3608 35.0072 21.3776 36.8148 23.1852C38.6224 24.9928 39.6392 27.4436 39.6422 30ZM30 21.7801C30.2486 21.7801 30.4871 21.8789 30.6629 22.0547C30.8387 22.2305 30.9375 22.469 30.9375 22.7176V23.6133C31.7343 23.8218 32.4395 24.2884 32.9432 24.94C33.4469 25.5916 33.7207 26.3917 33.7218 27.2153C33.7218 27.4639 33.623 27.7024 33.4472 27.8782C33.2714 28.054 33.0329 28.1528 32.7843 28.1528C32.5356 28.1528 32.2972 28.054 32.1213 27.8782C31.9455 27.7024 31.8468 27.4639 31.8468 27.2153C31.8468 26.7255 31.6522 26.2558 31.3059 25.9094C30.9595 25.5631 30.4898 25.3685 30 25.3685C29.5102 25.3685 29.0405 25.5631 28.6941 25.9094C28.3478 26.2558 28.1532 26.7255 28.1532 27.2153C28.1532 28.5431 28.749 28.7379 30.2171 29.0876C31.6127 29.4199 33.7218 29.9221 33.7218 32.7838C33.7209 33.6076 33.4472 34.4078 32.9435 35.0597C32.4398 35.7115 31.7344 36.1781 30.9375 36.3867V37.2829C30.9375 37.5315 30.8387 37.77 30.6629 37.9458C30.4871 38.1216 30.2486 38.2204 30 38.2204C29.7514 38.2204 29.5129 38.1216 29.3371 37.9458C29.1613 37.77 29.0625 37.5315 29.0625 37.2829V36.3867C28.2657 36.1782 27.5604 35.7117 27.0567 35.0601C26.553 34.4084 26.2793 33.6083 26.2782 32.7847C26.2782 32.5361 26.377 32.2976 26.5528 32.1218C26.7286 31.946 26.9671 31.8472 27.2157 31.8472C27.4644 31.8472 27.7028 31.946 27.8787 32.1218C28.0545 32.2976 28.1532 32.5361 28.1532 32.7847C28.1532 33.2745 28.3478 33.7442 28.6941 34.0906C29.0405 34.4369 29.5102 34.6315 30 34.6315C30.4898 34.6315 30.9595 34.4369 31.3059 34.0906C31.6522 33.7442 31.8468 33.2745 31.8468 32.7847C31.8468 31.4569 31.251 31.2621 29.7827 30.9124C28.3873 30.5801 26.2788 30.0779 26.2788 27.2162C26.2797 26.3925 26.5532 25.5923 27.0568 24.9405C27.5604 24.2887 28.2657 23.822 29.0625 23.6133V22.7171C29.0626 22.4686 29.1615 22.2303 29.3373 22.0545C29.5131 21.8788 29.7514 21.7801 30 21.7801ZM16.536 39.3799C16.609 39.4807 16.6612 39.5951 16.6895 39.7163C16.7178 39.8375 16.7217 39.9631 16.701 40.0858C16.6803 40.2086 16.6353 40.3259 16.5688 40.4311C16.5022 40.5363 16.4153 40.6271 16.3133 40.6984C16.2112 40.7696 16.096 40.8199 15.9743 40.8461C15.8527 40.8724 15.727 40.8741 15.6046 40.8513C15.4823 40.8285 15.3657 40.7815 15.2617 40.7131C15.1577 40.6448 15.0683 40.5564 14.9988 40.4531C12.5021 36.8691 11.371 32.5096 11.8103 28.1637C12.2495 23.8179 14.2301 19.7729 17.3936 16.761C20.557 13.7491 24.6943 11.9692 29.0564 11.7436C33.4186 11.5179 37.7173 12.8615 41.1746 15.531L41.0106 13.1189C40.9955 12.8718 41.0788 12.6288 41.2422 12.4429C41.4057 12.257 41.636 12.1433 41.8829 12.1265C42.1299 12.1098 42.3735 12.1914 42.5605 12.3536C42.7475 12.5157 42.8628 12.7453 42.8813 12.9921L43.1986 17.6727C43.2069 17.7955 43.191 17.9188 43.1517 18.0355C43.1124 18.1522 43.0504 18.2599 42.9695 18.3527C42.8885 18.4454 42.79 18.5213 42.6797 18.576C42.5694 18.6307 42.4494 18.6632 42.3266 18.6715L37.646 18.9888C37.6246 18.9903 37.6031 18.991 37.5817 18.9911C37.3385 18.991 37.1049 18.8964 36.9302 18.7273C36.7554 18.5582 36.6532 18.3278 36.6451 18.0848C36.637 17.8418 36.7236 17.6051 36.8867 17.4248C37.0498 17.2444 37.2766 17.1345 37.5192 17.1182L39.948 16.9534C33.4922 12.0207 24.2238 12.5736 18.3984 18.399C15.6696 21.1184 13.9869 24.7129 13.6463 28.5503C13.3056 32.3877 14.3288 36.2223 16.536 39.3799ZM45.1036 19.6948C46.9623 22.4199 48.0492 25.5971 48.2491 28.8896C48.4489 32.1822 47.7543 35.4675 46.2388 38.3974C44.7234 41.3274 42.4435 43.7927 39.6408 45.5322C36.8381 47.2718 33.617 48.2207 30.3189 48.2784C30.2109 48.2803 30.1025 48.2812 29.9951 48.2812C25.9591 48.2894 22.0353 46.9535 18.8428 44.4844L19.022 46.8724C19.0406 47.1204 18.9599 47.3655 18.7978 47.554C18.6356 47.7425 18.4052 47.8588 18.1573 47.8774C18.1334 47.8791 18.1096 47.88 18.0861 47.8801C17.8498 47.8799 17.6223 47.7904 17.4492 47.6296C17.276 47.4688 17.17 47.2486 17.1523 47.0129L16.8007 42.3347C16.7821 42.0868 16.8628 41.8416 17.0249 41.6531C17.1871 41.4646 17.4175 41.3483 17.6654 41.3297L22.3436 40.9781C22.4663 40.9689 22.5897 40.9839 22.7067 41.0224C22.8236 41.0608 22.9319 41.1219 23.0252 41.2022C23.1185 41.2825 23.1951 41.3804 23.2507 41.4903C23.3062 41.6002 23.3395 41.7199 23.3487 41.8427C23.358 41.9654 23.3429 42.0888 23.3045 42.2058C23.266 42.3227 23.2049 42.431 23.1246 42.5243C23.0444 42.6177 22.9465 42.6943 22.8366 42.7498C22.7267 42.8053 22.6069 42.8386 22.4842 42.8479L20.0291 43.0321C23.1267 45.4013 26.9668 46.5899 30.8612 46.3849C34.7557 46.1798 38.4497 44.5945 41.2814 41.913C44.1131 39.2316 45.8972 35.6293 46.314 31.7518C46.7308 27.8744 45.753 23.9752 43.5559 20.7532C43.4864 20.6516 43.4376 20.5373 43.4123 20.4168C43.387 20.2963 43.3856 20.172 43.4083 20.051C43.4542 19.8066 43.5953 19.5905 43.8005 19.4501C44.0058 19.3098 44.2584 19.2567 44.5027 19.3026C44.7471 19.3485 44.9632 19.4895 45.1036 19.6948Z" fill="#805DFF"/>
</g>
</svg>
