<svg width="65" height="51" viewBox="0 0 65 51" fill="none" xmlns="http://www.w3.org/2000/svg">
<path d="M59.1125 26.7541C56.1726 25.991 52.2871 25.5713 48.172 25.5713C47.5186 25.5713 46.8717 25.5831 46.2325 25.6042V5.54338C46.2325 4.0553 44.533 2.86063 41.1823 1.99094C38.2424 1.22782 34.3569 0.808105 30.2418 0.808105C26.1268 0.808105 22.2412 1.22782 19.3014 1.99094C15.9493 2.86063 14.2511 4.0553 14.2511 5.54338V21.5083C10.6212 21.5754 7.01224 23.003 4.24843 25.791C-1.41614 31.5052 -1.41614 40.8021 4.24843 46.5162C7.08007 49.3727 10.8012 50.8015 14.5211 50.8015C18.241 50.8015 21.9608 49.3727 24.7938 46.5162C26.1881 45.1097 27.238 43.4861 27.9463 41.7533C29.3578 41.8082 30.7708 41.8126 32.1826 41.7665V46.0741C32.1826 47.5649 33.8795 48.7608 37.225 49.6279C40.1597 50.3897 44.0478 50.8081 48.1746 50.8081C52.3015 50.8081 56.1896 50.3884 59.1242 49.6279C62.4698 48.7595 64.1667 47.5649 64.1667 46.0741V30.3066C64.1628 28.8185 62.4633 27.6238 59.1125 26.7541ZM58.7225 28.2843C61.9024 29.1092 62.5976 30.0237 62.5976 30.3066C62.5976 30.5894 61.9011 31.5052 58.7225 32.3288C55.9065 33.059 52.1593 33.4617 48.172 33.4617C44.1848 33.4617 40.4375 33.059 37.6216 32.3288C34.4417 31.5039 33.7465 30.5894 33.7465 30.3066C33.7465 30.0237 34.443 29.1079 37.6216 28.2843C40.4375 27.5541 44.1848 27.1515 48.172 27.1515C52.1593 27.1515 55.9052 27.5528 58.7225 28.2843ZM37.2303 26.7541C33.8782 27.6238 32.18 28.8185 32.18 30.3066V32.3091C30.9775 32.3486 29.7449 32.3525 28.5371 32.317C27.898 29.925 26.6498 27.6646 24.7912 25.791L24.7859 25.7857C26.5194 25.9555 28.3649 26.0436 30.2392 26.0436C34.366 26.0436 38.2541 25.6239 41.1888 24.8634C42.6744 24.4779 43.8352 24.0279 44.6661 23.5161V25.6778C41.8827 25.8463 39.3171 26.2133 37.2303 26.7541ZM40.8001 23.3346C37.9894 24.0635 34.2395 24.4648 30.2405 24.4648C27.4989 24.4648 24.8277 24.2713 22.5021 23.9069C20.4635 22.5543 18.1601 21.7741 15.815 21.5636V15.6389C16.6458 16.1507 17.8066 16.6007 19.2922 16.9862C22.2269 17.748 26.115 18.1664 30.2418 18.1664C34.3686 18.1664 38.2567 17.7467 41.1914 16.9862C42.677 16.6007 43.8378 16.1507 44.6687 15.6389V21.3097C44.6661 21.5939 43.9722 22.5122 40.8001 23.3346ZM19.6887 3.5198C22.5047 2.78958 26.252 2.38697 30.2392 2.38697C34.2265 2.38697 37.9737 2.78958 40.7897 3.5198C43.9696 4.34476 44.6648 5.25919 44.6648 5.54207C44.6648 5.82495 43.9683 6.74069 40.7897 7.56564C37.9737 8.29587 34.2265 8.69848 30.2392 8.69848C26.252 8.69848 22.5047 8.29587 19.6887 7.56564C16.5089 6.74069 15.8137 5.82626 15.8137 5.54207C15.8137 5.25787 16.5102 4.34476 19.6887 3.5198ZM15.8137 7.74458C16.6458 8.2564 17.8092 8.70769 19.2987 9.09451C22.2386 9.85763 26.1242 10.2773 30.2392 10.2773C34.3543 10.2773 38.2398 9.85763 41.1797 9.09451C42.6705 8.70769 43.8326 8.2564 44.6648 7.74458V13.4324C44.6648 13.7166 43.9696 14.635 40.7975 15.4573C37.9868 16.1862 34.2369 16.5875 30.2379 16.5875C26.2389 16.5875 22.4891 16.1862 19.6783 15.4573C16.5062 14.635 15.811 13.7166 15.811 13.4324V7.74458H15.8137ZM23.6851 45.3992C18.6309 50.4976 10.4073 50.4976 5.35317 45.3992C0.299011 40.3008 0.299011 32.0051 5.35317 26.9067C7.88091 24.3582 11.2003 23.0832 14.5185 23.0832C17.8366 23.0832 21.1574 24.3582 23.6838 26.9067C28.738 32.0051 28.738 40.3008 23.6851 45.3992ZM28.481 40.1902C29.0588 38.1443 29.188 35.9957 28.8684 33.9024C29.3249 33.9129 29.7827 33.9195 30.2405 33.9195C30.8901 33.9195 31.5383 33.909 32.18 33.8879V40.185C30.9592 40.2258 29.7071 40.2271 28.481 40.1902ZM58.7303 48.099C55.9196 48.8279 52.1697 49.2292 48.1707 49.2292C44.1717 49.2292 40.4219 48.8279 37.6111 48.099C34.4391 47.2767 33.7439 46.3583 33.7439 46.0741V40.4034C34.5747 40.9152 35.7355 41.3652 37.2211 41.7507C40.1558 42.5125 44.0439 42.9309 48.1707 42.9309C52.2975 42.9309 56.1857 42.5112 59.1203 41.7507C60.6059 41.3652 61.7668 40.9152 62.5976 40.4034V46.0741C62.5976 46.357 61.9024 47.2754 58.7303 48.099ZM58.7303 40.2218C55.9196 40.9507 52.1697 41.352 48.1707 41.352C44.1717 41.352 40.4219 40.9507 37.6111 40.2218C34.4391 39.3995 33.7439 38.4811 33.7439 38.1969V32.5091C34.576 33.0209 35.7394 33.4722 37.229 33.859C40.1689 34.6221 44.0544 35.0418 48.1694 35.0418C52.2845 35.0418 56.17 34.6221 59.1099 33.859C60.6007 33.4722 61.7628 33.0209 62.595 32.5091V38.1969C62.5976 38.4811 61.9024 39.3995 58.7303 40.2218ZM22.2334 28.3711C17.9801 24.0806 11.0582 24.0806 6.80486 28.3711C2.55154 32.6617 2.55154 39.6429 6.80486 43.9348C8.93217 46.0807 11.7247 47.153 14.5185 47.153C17.3123 47.153 20.1061 46.0807 22.2321 43.9348C26.4867 39.6442 26.4867 32.6617 22.2334 28.3711ZM21.1261 42.8191C19.304 44.6571 16.9119 45.5755 14.5185 45.5755C12.1264 45.5755 9.73301 44.6571 7.91091 42.8191C4.268 39.1442 4.268 33.1643 7.91091 29.4882C11.5538 25.8134 17.4819 25.8134 21.1261 29.4882C24.769 33.163 24.769 39.1429 21.1261 42.8191ZM12.8555 33.7616C12.8555 34.4919 13.1438 35.3629 14.5185 35.3629C16.4789 35.3629 17.7466 36.6115 17.7466 38.5443C17.7466 40.0324 16.7045 41.2849 15.3011 41.6296V42.6085C15.3011 43.044 14.9502 43.398 14.5185 43.398C14.0868 43.398 13.7359 43.044 13.7359 42.6085V41.6296C12.3325 41.2836 11.2903 40.0324 11.2903 38.5443C11.2903 38.1088 11.6412 37.7548 12.0729 37.7548C12.5047 37.7548 12.8555 38.1088 12.8555 38.5443C12.8555 39.4271 13.6016 40.1468 14.5185 40.1468C15.4354 40.1468 16.1815 39.4284 16.1815 38.5443C16.1815 37.8141 15.8932 36.9417 14.5185 36.9417C12.5581 36.9417 11.2903 35.6931 11.2903 33.7616C11.2903 32.2736 12.3325 31.021 13.7359 30.6763V29.6961C13.7359 29.2606 14.0868 28.9066 14.5185 28.9066C14.9502 28.9066 15.3011 29.2606 15.3011 29.6961V30.6763C16.7045 31.0223 17.7466 32.2736 17.7466 33.7616C17.7466 34.1971 17.3958 34.5511 16.9641 34.5511C16.5323 34.5511 16.1815 34.1971 16.1815 33.7616C16.1815 32.8788 15.4354 32.1591 14.5185 32.1591C13.6016 32.1591 12.8555 32.8788 12.8555 33.7616Z" fill="#805DFF"/>
</svg>
