<svg width="66" height="66" viewBox="0 0 66 66" fill="none" xmlns="http://www.w3.org/2000/svg">
<path d="M33 66C51.2254 66 66 51.2254 66 33C66 14.7746 51.2254 0 33 0C14.7746 0 0 14.7746 0 33C0 51.2254 14.7746 66 33 66Z" fill="#F30504"/>
<path d="M45.9256 35.5428C45.8987 35.6683 45.5402 36.0358 45.1727 36.3136C44.1062 37.0934 42.1882 37.8283 40.2433 38.1689C39.132 38.366 38.0296 38.4019 37.698 38.2405C37.4829 38.133 37.447 38.0434 37.5277 37.7655C37.689 37.183 38.2178 36.5466 39.0424 35.9551C39.4636 35.6504 41.1575 34.6197 41.9463 34.1895C43.2458 33.4725 44.3034 33.0513 45.0115 32.9527C45.2355 32.9258 45.5043 32.9168 45.5939 32.9527C45.7373 33.0064 45.8897 33.4187 45.9525 33.9117C45.9794 34.1716 45.9704 35.3277 45.9256 35.5428Z" fill="black"/>
<path d="M27.669 38.106C27.6242 38.1956 27.3911 38.3031 27.1223 38.339C26.8624 38.3748 26.0558 38.3569 25.5987 38.3031C23.9585 38.088 22.2108 37.5861 20.9381 36.9588C20.2211 36.6092 19.7103 36.2597 19.3339 35.8833L19.1188 35.6592L19.0919 35.3634C19.056 34.8526 19.065 34.0459 19.1188 33.7591C19.1546 33.5172 19.2442 33.2841 19.3607 33.078C19.4234 32.9973 19.4234 32.9973 19.7013 32.9973C20.0419 32.9973 20.3287 33.0511 20.7948 33.1945C21.7448 33.4903 23.1698 34.1983 24.8906 35.238C26.3157 36.0894 26.8534 36.5106 27.2657 37.0842C27.5525 37.4427 27.7407 37.9446 27.669 38.106Z" fill="black"/>
<path d="M38.648 48.8878C38.648 48.9147 38.5584 49.2822 38.4419 49.7214C38.3254 50.1605 38.2358 50.519 38.2358 50.5369C38.1462 50.5459 38.0744 50.5549 37.9848 50.5459H37.7338L37.3934 51.3525C37.2052 51.7917 37.0348 52.204 37.0169 52.2667L36.972 52.3742L36.6494 51.8544V49.7124L36.5867 49.7303C36.4523 49.7572 35.5202 49.8827 35.1079 49.9275C33.414 50.0978 31.7021 50.0619 30.0171 49.82C29.7482 49.7841 29.5153 49.7482 29.5063 49.7572C29.4973 49.7662 29.5063 50.2591 29.5243 50.8686L29.5512 51.971L29.4167 52.1681C29.345 52.2757 29.2733 52.3653 29.2733 52.3742C29.2464 52.4011 29.1746 52.2757 28.9954 51.9172C28.7982 51.5497 28.6638 51.1464 28.5652 50.7431L28.5115 50.519L28.2695 50.5369L28.0275 50.5638L27.9648 50.277C27.9379 50.1247 27.893 49.8827 27.8751 49.7482L27.8483 49.4973L27.651 49.318C27.5345 49.2194 27.4181 49.1209 27.3912 49.1029C27.3553 49.076 27.3373 49.0133 27.3373 48.9685V48.8789L29.2733 48.8968L29.3271 49.094L29.6587 49.1119C29.8469 49.1209 30.4294 49.1388 30.9582 49.1478L31.9261 49.1746L32.1771 48.7892L32.4371 48.4039H32.7597L32.7418 46.7906L32.3116 46.6024C30.9403 46.0019 30.1337 45.3118 29.8289 44.4693C29.7662 44.299 29.7662 44.2363 29.7483 43.4655C29.7393 42.6947 29.7393 42.632 29.7931 42.4617C29.9006 42.0763 30.2053 41.7716 30.5907 41.673C30.7252 41.6371 31.0748 41.6372 32.9031 41.6372L35.0541 41.6461L35.2961 41.7626C35.5829 41.906 35.7173 42.0046 35.8786 42.2197C36.0669 42.4707 36.1207 42.6589 36.1207 43.1339C36.1207 43.8061 36.0758 44.3886 36.0041 44.6217C35.9055 44.9354 35.7442 45.2401 35.556 45.509C35.1706 46.0019 34.4625 46.5038 33.8172 46.7279L33.629 46.7996L33.647 48.4307L33.9876 48.4666L34.2206 48.8161L34.4447 49.1657H35.4843C36.0579 49.1657 36.5598 49.1746 36.6047 49.1836C36.6853 49.2015 36.6942 49.1926 36.7749 49.0581L36.8645 48.9147H37.7518C38.4419 48.852 38.648 48.861 38.648 48.8878Z" fill="black"/>
<path d="M34.5522 51.1105C34.4088 51.2001 34.3013 51.236 34.2833 51.2181C34.2564 51.2091 34.149 51.1195 34.0325 51.0298L33.8262 50.8596L33.6111 51.0926C33.1361 51.6035 33.1272 51.6304 32.9838 51.6393C32.7687 51.6662 32.7239 51.6214 32.4551 51.227C32.3117 51.0298 32.2041 50.8596 32.2041 50.8596C32.2041 50.8596 32.1055 50.8416 31.989 50.8327L31.7739 50.8058L31.5766 51.2181L31.3974 51.1643C31.254 51.1195 31.1196 51.0657 30.9852 51.003L30.7522 50.8864V50.4473L34.8749 50.4652L34.8839 50.6713C34.8839 50.9223 34.8928 50.9223 34.5522 51.1105Z" fill="black"/>
<path d="M53.9202 41.6642C53.9112 41.6373 53.9112 41.5746 53.9022 41.4939C52.047 41.2968 46.7322 41.1713 41.8118 45.2403C41.8118 45.2403 40.2255 37.9537 32.7866 37.9537C25.3477 37.9537 22.5872 45.2403 22.5872 45.2403C18.4197 40.75 12.836 41.0816 10.8284 41.3774C10.8284 41.4222 10.8195 41.476 10.8195 41.5208C10.7567 42.6411 10.7925 43.1789 10.9717 43.8869C11.5543 46.0917 13.3468 48.5295 16.1431 50.9135C20.7409 54.8212 26.9698 57.6354 31.6841 57.967C36.6045 58.2987 43.8643 55.4217 48.6951 51.2272C49.4569 50.555 50.1649 49.838 50.8371 49.0852C51.3211 48.5295 52.0291 47.5705 51.9753 47.5705C51.9574 47.5705 51.9753 47.5526 52.0022 47.5436C52.0291 47.5257 52.047 47.5078 52.0291 47.4899C52.0201 47.4809 52.0381 47.463 52.056 47.454C52.0829 47.445 52.0918 47.4271 52.0828 47.4181C52.0739 47.4002 52.0828 47.3913 52.1097 47.3823C52.1366 47.3733 52.1367 47.3554 52.1367 47.3375C52.1277 47.3196 52.1367 47.3106 52.1546 47.3106C52.1725 47.3106 52.1815 47.2837 52.1815 47.2747C52.1815 47.2658 52.1993 47.2389 52.2083 47.2389C52.2262 47.2389 52.2352 47.221 52.2352 47.212C52.2621 47.1493 52.2979 47.0865 52.3338 47.0328C52.4503 46.8535 52.9163 46.029 52.9791 45.8856C53.4182 44.8818 53.6961 43.9945 53.8306 43.1072C53.9112 42.6322 53.956 41.8435 53.9202 41.6642ZM34.5522 51.1105C34.4088 51.2001 34.3013 51.236 34.2833 51.2181C34.2564 51.2091 34.149 51.1195 34.0325 51.0298L33.8262 50.8596L33.6111 51.0926C33.1361 51.6035 33.1272 51.6304 32.9838 51.6393C32.7687 51.6662 32.7239 51.6214 32.4551 51.227C32.3117 51.0298 32.2041 50.8596 32.2041 50.8596C32.2041 50.8596 32.1055 50.8416 31.989 50.8327L31.7739 50.8058L31.5766 51.2181L31.3974 51.1643C31.254 51.1195 31.1196 51.0657 30.9852 51.003L30.7522 50.8864V50.4473L34.8749 50.4652L34.8839 50.6713C34.8839 50.9223 34.8928 50.9223 34.5522 51.1105ZM38.424 49.7215C38.3074 50.1607 38.2178 50.5192 38.2178 50.5371C38.1372 50.5461 38.0565 50.555 37.9669 50.5461H37.716L37.3844 51.3616C37.1962 51.8008 37.0258 52.2131 37.0079 52.2758L36.9631 52.3834L36.6404 51.8636V49.7215L36.5777 49.7394C36.4433 49.7663 35.5112 49.8918 35.0989 49.9366C33.405 50.1069 31.6931 50.071 30.0081 49.8291C29.7393 49.7932 29.5063 49.7574 29.4973 49.7663C29.4884 49.7753 29.4973 50.2682 29.5153 50.8777L29.5422 51.9801L29.4077 52.1772C29.336 52.2848 29.2643 52.3744 29.2643 52.3834C29.2374 52.4103 29.1658 52.2848 28.9865 51.9263C28.7893 51.5588 28.6548 51.1555 28.5562 50.7522L28.5025 50.5281L28.2605 50.5461L28.0185 50.573L27.9558 50.2862C27.9289 50.1338 27.8841 49.8918 27.8662 49.7574L27.8393 49.5064L27.6421 49.3272C27.5256 49.2286 27.4091 49.13 27.3822 49.1121C27.3463 49.0852 27.3283 49.0225 27.3283 48.9776V48.888L29.2643 48.9059L29.3181 49.1031L29.6497 49.121C29.8379 49.13 30.4205 49.1479 30.9492 49.1569L31.9172 49.1838L32.1681 48.7984L32.4281 48.413H32.7507L32.7328 46.7997L32.3026 46.6115C30.9313 46.011 30.1247 45.3209 29.82 44.4784C29.7572 44.3081 29.7572 44.2454 29.7393 43.4746C29.7304 42.7039 29.7303 42.6411 29.7841 42.4708C29.8916 42.0854 30.1964 41.7807 30.5817 41.6821C30.7162 41.6463 31.0658 41.6463 32.8941 41.6463L35.0451 41.6552L35.2871 41.7718C35.5739 41.9152 35.7083 42.0138 35.8697 42.2289C36.0579 42.4798 36.1117 42.668 36.1117 43.143C36.1117 43.8152 36.0668 44.3978 35.9951 44.6308C35.8966 44.9445 35.7352 45.2492 35.547 45.5181C35.1616 46.011 34.4536 46.5129 33.8083 46.737L33.6201 46.8087L33.638 48.4399L33.9786 48.4757L34.2116 48.8253L34.4357 49.1748H35.4754C36.049 49.1748 36.5509 49.1838 36.5957 49.1927C36.6763 49.2107 36.6852 49.2017 36.7659 49.0672L36.8555 48.9239H37.7428C38.4329 48.9239 38.6301 48.9328 38.6301 48.9508C38.648 48.9059 38.5405 49.2823 38.424 49.7215Z" fill="white"/>
<path d="M53.8576 40.8663C53.8397 40.5168 53.8127 40.0328 53.7858 39.7908C53.4542 36.2775 52.5579 33.4005 50.8461 30.3533C50.7744 30.2368 50.7117 30.1202 50.6758 30.0306C50.6579 30.0037 50.6489 29.9858 50.6489 29.9679C50.8909 29.2509 51.8768 26.2305 52.6565 22.7889C53.7141 18.1105 54.3953 12.6433 52.3339 10.9942C52.3339 10.9942 48.7669 10.7343 43.9988 15.4127C42.7082 16.7033 41.5161 18.1104 40.4675 19.6072L40.1359 19.4996C38.2179 18.8723 36.2193 18.4869 34.2207 18.3524C33.6202 18.3076 31.3616 18.3076 30.6267 18.3524C28.404 18.4958 26.7011 18.8364 24.7652 19.5086C24.6845 19.5355 24.6218 19.5624 24.5501 19.5893C23.4566 18.1015 22.2378 16.7033 20.9024 15.4306C15.9371 10.7253 12.2356 10.9942 12.2356 10.9942C10.0487 12.6881 10.7926 18.4062 11.9219 23.246C12.6658 26.4456 13.58 29.2598 13.9205 30.2726C13.8937 30.3264 13.8668 30.3891 13.8309 30.4429C12.0295 34.0996 11.0526 37.6219 10.8195 41.3772C12.8451 41.0814 18.4107 40.75 22.5872 45.2403C22.5872 45.2403 25.3477 37.9537 32.7866 37.9537C40.2255 37.9537 41.8118 45.2403 41.8118 45.2403C46.7412 41.1713 52.047 41.3057 53.9022 41.4939C53.8933 41.3326 53.8755 41.0993 53.8576 40.8663ZM15.3725 27.3418C15.3725 27.3418 12.4775 20.1001 13.2214 15.9594C13.3469 15.2604 13.58 14.6509 13.9385 14.1849C13.9385 14.1849 17.2277 14.5075 22.5245 20.3959C22.5245 20.3959 21.5207 20.8799 20.1674 21.9195C20.1674 21.9195 20.1584 21.9285 20.1494 21.9285C18.6886 23.0578 16.8154 24.8413 15.3725 27.3418ZM27.669 38.106C27.6242 38.1956 27.3911 38.3031 27.1223 38.339C26.8624 38.3748 26.0558 38.3569 25.5987 38.3031C23.9585 38.088 22.2108 37.5861 20.9381 36.9588C20.2211 36.6092 19.7103 36.2597 19.3339 35.8833L19.1188 35.6592L19.0919 35.3634C19.056 34.8526 19.065 34.0459 19.1188 33.7591C19.1546 33.5172 19.2442 33.2841 19.3607 33.078C19.4234 32.9973 19.4234 32.9973 19.7013 32.9973C20.0419 32.9973 20.3287 33.0511 20.7948 33.1945C21.7448 33.4903 23.1698 34.1983 24.8906 35.238C26.3157 36.0894 26.8534 36.5106 27.2657 37.0842C27.5525 37.4427 27.7407 37.9446 27.669 38.106ZM45.9256 35.5428C45.8987 35.6683 45.5402 36.0358 45.1727 36.3136C44.1062 37.0934 42.1882 37.8283 40.2433 38.1689C39.132 38.366 38.0296 38.4019 37.698 38.2405C37.4829 38.133 37.447 38.0434 37.5277 37.7655C37.689 37.183 38.2178 36.5466 39.0424 35.9551C39.4636 35.6504 41.1575 34.6197 41.9463 34.1895C43.2458 33.4725 44.3034 33.0513 45.0115 32.9527C45.2355 32.9258 45.5043 32.9168 45.5939 32.9527C45.7373 33.0064 45.8897 33.4187 45.9525 33.9117C45.9794 34.1716 45.9704 35.3277 45.9256 35.5428ZM44.6441 21.9285L44.6261 21.9195C43.3266 20.8799 42.3496 20.3959 42.3496 20.3959C47.4672 14.5075 50.64 14.1849 50.64 14.1849C50.9895 14.6599 51.2136 15.2604 51.3391 15.9594C52.0561 20.1001 49.2598 27.3508 49.2598 27.3508C48.0857 25.2536 46.5173 23.4163 44.6441 21.9285Z" fill="#FFA409"/>
<path d="M51.339 15.9508C50.7385 15.8701 47.8795 15.8612 44.6351 21.9288L44.6171 21.9198C43.3176 20.8802 42.3406 20.3962 42.3406 20.3962C47.4582 14.5078 50.6309 14.1852 50.6309 14.1852C50.9984 14.6512 51.2225 15.2517 51.339 15.9508Z" fill="#FF9300"/>
<path d="M49.2687 27.3421C48.0946 25.2538 46.5262 23.4163 44.6441 21.9285C47.8796 15.8609 50.7296 15.879 51.348 15.9507C52.065 20.1004 49.2687 27.3421 49.2687 27.3421Z" fill="#FF8300"/>
<path d="M51.4555 15.9777C51.4197 15.9687 51.3749 15.9598 51.339 15.9508L51.4555 15.9777Z" fill="#FF8300"/>
<path d="M22.5245 20.3871C22.5245 20.3871 21.5206 20.8711 20.1673 21.9107C20.1673 21.9107 20.1583 21.9197 20.1494 21.9197C16.7974 15.8431 13.8397 15.87 13.2034 15.9417C13.3289 15.2426 13.562 14.6331 13.9205 14.1671C13.9473 14.1761 17.2276 14.4987 22.5245 20.3871Z" fill="#FF9300"/>
<path d="M20.1675 21.9288C18.6976 23.0581 16.8245 24.8327 15.3815 27.3422C15.3815 27.3422 12.4866 20.1005 13.2305 15.9508C13.8489 15.8702 16.8065 15.8612 20.1675 21.9288Z" fill="#FF8300"/>
<path d="M13.2214 15.9506C13.1855 15.9597 13.1318 15.9687 13.0959 15.9777L13.2214 15.9506Z" fill="#FF8300"/>
<path d="M41.4266 31.366C41.4266 31.366 38.944 31.5184 39.2577 29.5825C39.5714 27.6466 41.5072 27.4136 42.045 27.4942C42.5917 27.5749 44.7606 28.3457 44.3663 29.9768C43.9809 31.608 43.4342 31.2943 43.1294 31.375C42.8247 31.4377 41.4266 31.366 41.4266 31.366Z" fill="white"/>
<path d="M23.143 31.366C23.143 31.366 20.6603 31.5184 20.974 29.5825C21.2877 27.6466 23.2236 27.4136 23.7614 27.4942C24.3081 27.5749 26.477 28.3457 26.0826 29.9768C25.6972 31.608 25.1506 31.2943 24.8459 31.375C24.5322 31.4377 23.143 31.366 23.143 31.366Z" fill="white"/>
</svg>
