<svg width="66" height="66" viewBox="0 0 66 66" fill="none" xmlns="http://www.w3.org/2000/svg">
<path d="M33 66C51.2254 66 66 51.2254 66 33C66 14.7746 51.2254 0 33 0C14.7746 0 0 14.7746 0 33C0 51.2254 14.7746 66 33 66Z" fill="url(#paint0_linear_2021_22)"/>
<path d="M17.3694 42.554C17.6472 42.2762 18.0326 42.1148 18.4449 42.1148H55.3974C56.0696 42.1148 56.4101 42.9304 55.9351 43.4054L48.6397 50.7009C48.3618 50.9788 47.9764 51.1401 47.5641 51.1401H10.6117C9.93949 51.1401 9.59891 50.3245 10.0739 49.8495L17.3694 42.554Z" fill="white"/>
<path d="M17.3694 15.299C17.6562 15.0212 18.0416 14.8599 18.4449 14.8599H55.3974C56.0696 14.8599 56.4102 15.6754 55.9351 16.1505L48.6397 23.446C48.3618 23.7238 47.9764 23.8851 47.5641 23.8851H10.6117C9.93949 23.8851 9.59891 23.0695 10.0739 22.5945L17.3694 15.299Z" fill="white"/>
<path d="M48.6306 28.8324C48.3528 28.5546 47.9674 28.3933 47.5551 28.3933H10.6027C9.93047 28.3933 9.58989 29.2089 10.0649 29.6839L17.3604 36.9794C17.6382 37.2572 18.0236 37.4185 18.4359 37.4185H55.3884C56.0606 37.4185 56.4011 36.603 55.9261 36.1279L48.6306 28.8324Z" fill="white"/>
<defs>
<linearGradient id="paint0_linear_2021_22" x1="61.923" y1="3.50219" x2="8.27464" y2="58.2094" gradientUnits="userSpaceOnUse">
<stop stop-color="#00FFA3"/>
<stop offset="1" stop-color="#DC1FFF"/>
</linearGradient>
</defs>
</svg>
