<svg width="67" height="66" viewBox="0 0 67 66" fill="none" xmlns="http://www.w3.org/2000/svg">
<path d="M33.4585 66C51.751 66 66.4585 51.2925 66.4585 33C66.4585 14.7075 51.751 0 33.4585 0C15.166 0 0.458496 14.7075 0.458496 33C0.458496 51.2835 15.166 66 33.4585 66Z" fill="#2775CA"/>
<path d="M42.5284 38.2253C42.5284 33.4124 39.6424 31.7633 33.8616 31.0732C29.7388 30.5265 28.9143 29.4241 28.9143 27.4972C28.9143 25.5702 30.2945 24.3334 33.037 24.3334C35.5107 24.3334 36.8909 25.158 37.5721 27.2193C37.7065 27.6316 38.1188 27.9095 38.54 27.9095H40.7448C41.2915 27.9095 41.7128 27.4972 41.7128 26.9415V26.8071C41.1661 23.7777 38.6834 21.4475 35.5286 21.1696V17.8714C35.5286 17.3247 35.1163 16.9035 34.4262 16.769H32.3648C31.8181 16.769 31.3969 17.1813 31.2625 17.8714V21.0352C27.1397 21.5819 24.5226 24.3334 24.5226 27.775C24.5226 32.3101 27.2741 34.1026 33.046 34.7837C36.8999 35.4738 38.1367 36.2984 38.1367 38.4942C38.1367 40.699 36.2098 42.2047 33.6017 42.2047C30.0256 42.2047 28.7888 40.69 28.3765 38.6286C28.2421 38.0819 27.8298 37.8041 27.4086 37.8041H25.0694C24.5226 37.8041 24.1014 38.2164 24.1014 38.772V38.9065C24.6481 42.3481 26.8529 44.8217 31.3879 45.5029V48.8011C31.3879 49.3478 31.8002 49.769 32.4903 49.9035H34.5517C35.0984 49.9035 35.5197 49.4912 35.6541 48.8011V45.5029C39.7769 44.8217 42.5284 41.9358 42.5284 38.2253Z" fill="white"/>
<path d="M26.4409 52.6642C15.7127 48.8103 10.2187 36.8543 14.207 26.2606C16.2684 20.4887 20.8034 16.0881 26.4409 14.0267C26.9876 13.7489 27.2654 13.3366 27.2654 12.6465V10.7196C27.2654 10.1729 26.9876 9.75163 26.4409 9.61719C26.3064 9.61719 26.0286 9.61719 25.8941 9.75163C12.8357 13.8744 5.68367 27.7663 9.80643 40.8247C12.2801 48.5235 18.1953 54.4388 25.8941 56.9124C26.4409 57.1903 26.9965 56.9124 27.131 56.3657C27.2654 56.2313 27.2654 56.0879 27.2654 55.819V53.892C27.2654 53.4887 26.8531 52.942 26.4409 52.6642ZM41.0139 9.76059C40.4672 9.48275 39.9115 9.76059 39.7771 10.3073C39.6427 10.4417 39.6427 10.5851 39.6427 10.854V12.781C39.6427 13.3277 40.0549 13.8833 40.4672 14.1612C51.1954 18.0151 56.6894 29.9711 52.7011 40.5648C50.6397 46.3366 46.1046 50.7372 40.4672 52.7986C39.9205 53.0765 39.6427 53.4887 39.6427 54.1788V56.1058C39.6427 56.6525 39.9205 57.0737 40.4672 57.2082C40.6017 57.2082 40.8795 57.2082 41.0139 57.0737C54.0723 52.951 61.2244 39.0591 57.1017 26.0007C54.628 18.1495 48.5783 12.2342 41.0139 9.76059Z" fill="white"/>
</svg>
