<svg width="66" height="66" viewBox="0 0 66 66" fill="none" xmlns="http://www.w3.org/2000/svg">
<path d="M33 0C51.2208 0 66 14.7792 66 33C66 51.2208 51.2208 66 33 66C14.7792 66 0 51.2298 0 33C0 14.7702 14.7702 0 33 0Z" fill="#53AE94"/>
<path d="M37.0689 28.5998V23.6883H48.299V16.2046H17.7278V23.6883H28.9579V28.5908C19.834 29.012 12.9687 30.8135 12.9687 32.9824C12.9687 35.1514 19.834 36.9528 28.9579 37.3741V53.1033H37.0779V37.383C46.1838 36.9618 53.0312 35.1603 53.0312 32.9914C53.0312 30.8314 46.1838 29.021 37.0689 28.5998ZM37.0689 36.0476C36.8359 36.0566 35.6618 36.1283 33.0448 36.1283C30.9476 36.1283 29.4777 36.0655 28.9579 36.0387V36.0476C20.9006 35.6891 14.8777 34.291 14.8777 32.606C14.8777 30.921 20.8916 29.5229 28.9579 29.1644V34.6495C29.4867 34.6853 30.9923 34.7749 33.0806 34.7749C35.5812 34.7749 36.8449 34.6674 37.0779 34.6495V29.1734C45.1263 29.5319 51.1311 30.939 51.1311 32.615C51.1222 34.282 45.1173 35.6891 37.0689 36.0476Z" fill="white"/>
</svg>
